<svg xmlns="http://www.w3.org/2000/svg" id="sprotty_TPU" class="sprotty-graph sprotty-block-diagram blockdiagram" style="border-block-end-color:rgb(204, 204, 204);border-block-start-color:rgb(204, 204, 204);border-bottom-color:rgb(204, 204, 204);border-inline-end-color:rgb(204, 204, 204);border-inline-start-color:rgb(204, 204, 204);border-left-color:rgb(204, 204, 204);border-right-color:rgb(204, 204, 204);border-top-color:rgb(204, 204, 204);caret-color:rgb(204, 204, 204);color:rgb(204, 204, 204);column-rule-color:rgb(204, 204, 204);font-family:&quot;Noto Sans&quot;, Helvetica, Arial, sans-serif;font-size:13px;outline-color:rgb(204, 204, 204);perspective-origin:0px 0px;scrollbar-color:rgba(121, 121, 121, 0.4) rgb(31, 31, 31);text-decoration:none solid rgb(204, 204, 204);text-decoration-color:rgb(204, 204, 204);text-emphasis-color:rgb(204, 204, 204);transform-origin:0px 0px;-webkit-locale:&quot;en&quot;;-webkit-text-fill-color:rgb(204, 204, 204);-webkit-text-stroke-color:rgb(204, 204, 204);" version="1.1" viewBox="7 7 1430.7679443359375 1165.5908975601196" width="1430.7679443359375" height="1165.5908975601196"><g transform="scale(1) translate(0,0)"><g id="sprotty_e$TPU" class="architecture" transform="translate(12, 12)"><g class="sprotty-block" style="fill:rgb(255, 255, 255);stroke:rgb(48, 48, 48);stroke-dasharray:0px;"><rect x="0" y="0" rx="1" ry="1" width="1420.7679443359375" height="1155.5908975601196"/><text x="710.3839721679688" y="12" class="sprotty-block-name-openable sprotty-block-name" style="dominant-baseline:middle;fill:rgb(48, 48, 48);font-size:16px;font-weight:700;perspective-origin:275.26px 8.19129px;stroke:rgba(0, 0, 0, 0);text-anchor:middle;">TPU</text><line x1="0" y1="20" x2="1420.7679443359375" y2="20"/></g><g id="sprotty_e$TPU/p$controller_inst/r$ready_to_e$TPU/r$ready" class="sprotty-edge edge" style="fill:none;stroke:rgb(112, 112, 112);stroke-linejoin:round;"><g><path d="M 309.85406494140625 414.1060571670532 L 447.85406494140625 414.1060571670532 C 448.85406494140625 414.1060571670532 449.85406494140625 415.1060571670532 449.85406494140625 416.1060571670532 L 449.85406494140625 600.2272672653198 C 449.85406494140625 601.2272672653198 450.85406494140625 602.2272672653198 451.85406494140625 602.2272672653198 L 1420.7679443359375 602.2272672653198 "/><path d="M 309.85406494140625 414.1060571670532 L 447.85406494140625 414.1060571670532 C 448.85406494140625 414.1060571670532 449.85406494140625 415.1060571670532 449.85406494140625 416.1060571670532 L 449.85406494140625 600.2272672653198 C 449.85406494140625 601.2272672653198 450.85406494140625 602.2272672653198 451.85406494140625 602.2272672653198 L 1420.7679443359375 602.2272672653198 " class="clickable"/></g></g><g id="sprotty_e$TPU/p$controller_inst/r$err_to_e$TPU/r$err" class="sprotty-edge edge" style="fill:none;stroke:rgb(112, 112, 112);stroke-linejoin:round;"><g><path d="M 309.85406494140625 386.6818151473999 L 1420.7679443359375 386.6818151473999 "/><path d="M 309.85406494140625 386.6818151473999 L 1420.7679443359375 386.6818151473999 " class="clickable"/></g></g><g id="sprotty_e$TPU/p$controller_inst/r$done_to_e$TPU/r$done" class="sprotty-edge edge" style="fill:none;stroke:rgb(112, 112, 112);stroke-linejoin:round;"><g><path d="M 309.85406494140625 441.53029918670654 L 427.85406494140625 441.53029918670654 C 428.85406494140625 441.53029918670654 429.85406494140625 442.53029918670654 429.85406494140625 443.53029918670654 L 429.85406494140625 633.6515092849731 C 429.85406494140625 634.6515092849731 430.85406494140625 635.6515092849731 431.85406494140625 635.6515092849731 L 1420.7679443359375 635.6515092849731 "/><path d="M 309.85406494140625 441.53029918670654 L 427.85406494140625 441.53029918670654 C 428.85406494140625 441.53029918670654 429.85406494140625 442.53029918670654 429.85406494140625 443.53029918670654 L 429.85406494140625 633.6515092849731 C 429.85406494140625 634.6515092849731 430.85406494140625 635.6515092849731 431.85406494140625 635.6515092849731 L 1420.7679443359375 635.6515092849731 " class="clickable"/></g></g><g id="sprotty_e$TPU/p$PISO_inst/r$data_out_to_e$TPU/r$data_out" class="sprotty-edge thick edge" style="fill:none;stroke:rgb(112, 112, 112);stroke-linejoin:round;stroke-width:3px;"><g><path d="M 1348.1690063476562 504.95454120635986 L 1420.7679443359375 504.95454120635986 "/><path d="M 1348.1690063476562 504.95454120635986 L 1420.7679443359375 504.95454120635986 " class="clickable"/></g></g><g id="sprotty_e$TPU/r$rst_to_e$TPU/p$controller_inst/r$rst" class="sprotty-edge edge" style="fill:none;stroke:rgb(112, 112, 112);stroke-linejoin:round;"><g><path d="M 0 113.13636302947998 L 81.37689208984375 113.13636302947998 C 82.37689208984375 113.13636302947998 83.37689208984375 114.13636302947998 83.37689208984375 115.13636302947998 L 83.37689208984375 384.6818151473999 C 83.37689208984375 385.6818151473999 84.37689208984375 386.6818151473999 85.37689208984375 386.6818151473999 L 93.37689208984375 386.6818151473999 "/><path d="M 0 113.13636302947998 L 81.37689208984375 113.13636302947998 C 82.37689208984375 113.13636302947998 83.37689208984375 114.13636302947998 83.37689208984375 115.13636302947998 L 83.37689208984375 384.6818151473999 C 83.37689208984375 385.6818151473999 84.37689208984375 386.6818151473999 85.37689208984375 386.6818151473999 L 93.37689208984375 386.6818151473999 " class="clickable"/></g><circle r="2" id="sprotty_e$TPU/r$rst_to_e$TPU/p$controller_inst/r$rst/junction0" transform="translate(83.37689208984375, 113.13636302947998)" class="sprotty-junction junction" style="fill:rgb(112, 112, 112);stroke:none;"/></g><g id="sprotty_e$TPU/r$clk_to_e$TPU/p$controller_inst/r$clk" class="sprotty-edge edge" style="fill:none;stroke:rgb(112, 112, 112);stroke-linejoin:round;"><g><path d="M 0 36 L 71.37689208984375 36 C 72.37689208984375 36 73.37689208984375 37 73.37689208984375 38 L 73.37689208984375 473.8106017112732 C 73.37689208984375 474.8106017112732 74.37689208984375 475.8106017112732 75.37689208984375 475.8106017112732 L 93.37689208984375 475.8106017112732 "/><path d="M 0 36 L 71.37689208984375 36 C 72.37689208984375 36 73.37689208984375 37 73.37689208984375 38 L 73.37689208984375 473.8106017112732 C 73.37689208984375 474.8106017112732 74.37689208984375 475.8106017112732 75.37689208984375 475.8106017112732 L 93.37689208984375 475.8106017112732 " class="clickable"/></g><circle r="2" id="sprotty_e$TPU/r$clk_to_e$TPU/p$controller_inst/r$clk/junction0" transform="translate(73.37689208984375, 36)" class="sprotty-junction junction" style="fill:rgb(112, 112, 112);stroke:none;"/></g><g id="sprotty_e$TPU/r$enable_to_e$TPU/p$controller_inst/r$enable" class="sprotty-edge edge" style="fill:none;stroke:rgb(112, 112, 112);stroke-linejoin:round;"><g><path d="M 0 564.9393882751465 L 93.37689208984375 564.9393882751465 "/><path d="M 0 564.9393882751465 L 93.37689208984375 564.9393882751465 " class="clickable"/></g></g><g id="sprotty_e$TPU/r$valid_to_e$TPU/p$controller_inst/r$valid" class="sprotty-edge edge" style="fill:none;stroke:rgb(112, 112, 112);stroke-linejoin:round;"><g><path d="M 0 654.0681748390198 L 93.37689208984375 654.0681748390198 "/><path d="M 0 654.0681748390198 L 93.37689208984375 654.0681748390198 " class="clickable"/></g></g><g id="sprotty_e$TPU/r$data_in_to_e$TPU/p$controller_inst/r$data_in" class="sprotty-edge thick edge" style="fill:none;stroke:rgb(112, 112, 112);stroke-linejoin:round;stroke-width:3px;"><g><path d="M 0 743.1969614028931 L 93.37689208984375 743.1969614028931 "/><path d="M 0 743.1969614028931 L 93.37689208984375 743.1969614028931 " class="clickable"/></g></g><g id="sprotty_e$TPU/r$clk_to_e$TPU/p$bufferA/r$clk" class="sprotty-edge edge" style="fill:none;stroke:rgb(112, 112, 112);stroke-linejoin:round;"><g><path d="M 0 36 L 457.85406494140625 36 C 458.85406494140625 36 459.85406494140625 37 459.85406494140625 38 L 459.85406494140625 683.3636302947998 C 459.85406494140625 684.3636302947998 460.85406494140625 685.3636302947998 461.85406494140625 685.3636302947998 L 469.85406494140625 685.3636302947998 "/><path d="M 0 36 L 457.85406494140625 36 C 458.85406494140625 36 459.85406494140625 37 459.85406494140625 38 L 459.85406494140625 683.3636302947998 C 459.85406494140625 684.3636302947998 460.85406494140625 685.3636302947998 461.85406494140625 685.3636302947998 L 469.85406494140625 685.3636302947998 " class="clickable"/></g><circle r="2" id="sprotty_e$TPU/r$clk_to_e$TPU/p$bufferA/r$clk/junction0" transform="translate(459.85406494140625, 36)" class="sprotty-junction junction" style="fill:rgb(112, 112, 112);stroke:none;"/><circle r="2" id="sprotty_e$TPU/r$clk_to_e$TPU/p$bufferA/r$clk/junction1" transform="translate(459.85406494140625, 685.3636302947998)" class="sprotty-junction junction" style="fill:rgb(112, 112, 112);stroke:none;"/></g><g id="sprotty_e$TPU/r$rst_to_e$TPU/p$bufferA/r$rst" class="sprotty-edge edge" style="fill:none;stroke:rgb(112, 112, 112);stroke-linejoin:round;"><g><path d="M 0 113.13636302947998 L 437.85406494140625 113.13636302947998 C 438.85406494140625 113.13636302947998 439.85406494140625 114.13636302947998 439.85406494140625 115.13636302947998 L 439.85406494140625 710.7878723144531 C 439.85406494140625 711.7878723144531 440.85406494140625 712.7878723144531 441.85406494140625 712.7878723144531 L 469.85406494140625 712.7878723144531 "/><path d="M 0 113.13636302947998 L 437.85406494140625 113.13636302947998 C 438.85406494140625 113.13636302947998 439.85406494140625 114.13636302947998 439.85406494140625 115.13636302947998 L 439.85406494140625 710.7878723144531 C 439.85406494140625 711.7878723144531 440.85406494140625 712.7878723144531 441.85406494140625 712.7878723144531 L 469.85406494140625 712.7878723144531 " class="clickable"/></g><circle r="2" id="sprotty_e$TPU/r$rst_to_e$TPU/p$bufferA/r$rst/junction0" transform="translate(439.85406494140625, 113.13636302947998)" class="sprotty-junction junction" style="fill:rgb(112, 112, 112);stroke:none;"/><circle r="2" id="sprotty_e$TPU/r$rst_to_e$TPU/p$bufferA/r$rst/junction1" transform="translate(439.85406494140625, 712.7878723144531)" class="sprotty-junction junction" style="fill:rgb(112, 112, 112);stroke:none;"/></g><g id="sprotty_e$TPU/r$clk_to_e$TPU/p$bufferB/r$clk" class="sprotty-edge edge" style="fill:none;stroke:rgb(112, 112, 112);stroke-linejoin:round;"><g><path d="M 0 36 L 457.85406494140625 36 C 458.85406494140625 36 459.85406494140625 37 459.85406494140625 38 L 459.85406494140625 923.333324432373 C 459.85406494140625 924.333324432373 460.85406494140625 925.333324432373 461.85406494140625 925.333324432373 L 469.85406494140625 925.333324432373 "/><path d="M 0 36 L 457.85406494140625 36 C 458.85406494140625 36 459.85406494140625 37 459.85406494140625 38 L 459.85406494140625 923.333324432373 C 459.85406494140625 924.333324432373 460.85406494140625 925.333324432373 461.85406494140625 925.333324432373 L 469.85406494140625 925.333324432373 " class="clickable"/></g></g><g id="sprotty_e$TPU/r$rst_to_e$TPU/p$bufferB/r$rst" class="sprotty-edge edge" style="fill:none;stroke:rgb(112, 112, 112);stroke-linejoin:round;"><g><path d="M 0 113.13636302947998 L 437.85406494140625 113.13636302947998 C 438.85406494140625 113.13636302947998 439.85406494140625 114.13636302947998 439.85406494140625 115.13636302947998 L 439.85406494140625 950.7575664520264 C 439.85406494140625 951.7575664520264 440.85406494140625 952.7575664520264 441.85406494140625 952.7575664520264 L 469.85406494140625 952.7575664520264 "/><path d="M 0 113.13636302947998 L 437.85406494140625 113.13636302947998 C 438.85406494140625 113.13636302947998 439.85406494140625 114.13636302947998 439.85406494140625 115.13636302947998 L 439.85406494140625 950.7575664520264 C 439.85406494140625 951.7575664520264 440.85406494140625 952.7575664520264 441.85406494140625 952.7575664520264 L 469.85406494140625 952.7575664520264 " class="clickable"/></g></g><g id="sprotty_e$TPU/r$clk_to_e$TPU/p$delay_instA/r$clk" class="sprotty-edge edge" style="fill:none;stroke:rgb(112, 112, 112);stroke-linejoin:round;"><g><path d="M 0 36 L 682.676025390625 36 C 683.676025390625 36 684.676025390625 37 684.676025390625 38 L 684.676025390625 160.84848403930664 C 684.676025390625 161.84848403930664 685.676025390625 162.84848403930664 686.676025390625 162.84848403930664 L 694.8360290527344 162.84848403930664 "/><path d="M 0 36 L 682.676025390625 36 C 683.676025390625 36 684.676025390625 37 684.676025390625 38 L 684.676025390625 160.84848403930664 C 684.676025390625 161.84848403930664 685.676025390625 162.84848403930664 686.676025390625 162.84848403930664 L 694.8360290527344 162.84848403930664 " class="clickable"/></g><circle r="2" id="sprotty_e$TPU/r$clk_to_e$TPU/p$delay_instA/r$clk/junction0" transform="translate(684.676025390625, 36)" class="sprotty-junction junction" style="fill:rgb(112, 112, 112);stroke:none;"/><circle r="2" id="sprotty_e$TPU/r$clk_to_e$TPU/p$delay_instA/r$clk/junction1" transform="translate(684.676025390625, 162.84848403930664)" class="sprotty-junction junction" style="fill:rgb(112, 112, 112);stroke:none;"/></g><g id="sprotty_e$TPU/r$rst_to_e$TPU/p$delay_instA/r$rst" class="sprotty-edge edge" style="fill:none;stroke:rgb(112, 112, 112);stroke-linejoin:round;"><g><path d="M 0 113.13636302947998 L 672.676025390625 113.13636302947998 C 673.676025390625 113.13636302947998 674.676025390625 114.13636302947998 674.676025390625 115.13636302947998 L 674.676025390625 188.27272605895996 C 674.676025390625 189.27272605895996 675.676025390625 190.27272605895996 676.676025390625 190.27272605895996 L 694.8360290527344 190.27272605895996 "/><path d="M 0 113.13636302947998 L 672.676025390625 113.13636302947998 C 673.676025390625 113.13636302947998 674.676025390625 114.13636302947998 674.676025390625 115.13636302947998 L 674.676025390625 188.27272605895996 C 674.676025390625 189.27272605895996 675.676025390625 190.27272605895996 676.676025390625 190.27272605895996 L 694.8360290527344 190.27272605895996 " class="clickable"/></g><circle r="2" id="sprotty_e$TPU/r$rst_to_e$TPU/p$delay_instA/r$rst/junction0" transform="translate(674.676025390625, 113.13636302947998)" class="sprotty-junction junction" style="fill:rgb(112, 112, 112);stroke:none;"/><circle r="2" id="sprotty_e$TPU/r$rst_to_e$TPU/p$delay_instA/r$rst/junction1" transform="translate(674.676025390625, 190.27272605895996)" class="sprotty-junction junction" style="fill:rgb(112, 112, 112);stroke:none;"/></g><g id="sprotty_e$TPU/r$clk_to_e$TPU/p$delay_instB/r$clk" class="sprotty-edge edge" style="fill:none;stroke:rgb(112, 112, 112);stroke-linejoin:round;"><g><path d="M 0 36 L 682.676025390625 36 C 683.676025390625 36 684.676025390625 37 684.676025390625 38 L 684.676025390625 291.1212100982666 C 684.676025390625 292.1212100982666 685.676025390625 293.1212100982666 686.676025390625 293.1212100982666 L 694.676025390625 293.1212100982666 "/><path d="M 0 36 L 682.676025390625 36 C 683.676025390625 36 684.676025390625 37 684.676025390625 38 L 684.676025390625 291.1212100982666 C 684.676025390625 292.1212100982666 685.676025390625 293.1212100982666 686.676025390625 293.1212100982666 L 694.676025390625 293.1212100982666 " class="clickable"/></g></g><g id="sprotty_e$TPU/r$rst_to_e$TPU/p$delay_instB/r$rst" class="sprotty-edge edge" style="fill:none;stroke:rgb(112, 112, 112);stroke-linejoin:round;"><g><path d="M 0 113.13636302947998 L 672.676025390625 113.13636302947998 C 673.676025390625 113.13636302947998 674.676025390625 114.13636302947998 674.676025390625 115.13636302947998 L 674.676025390625 318.5454521179199 C 674.676025390625 319.5454521179199 675.676025390625 320.5454521179199 676.676025390625 320.5454521179199 L 694.676025390625 320.5454521179199 "/><path d="M 0 113.13636302947998 L 672.676025390625 113.13636302947998 C 673.676025390625 113.13636302947998 674.676025390625 114.13636302947998 674.676025390625 115.13636302947998 L 674.676025390625 318.5454521179199 C 674.676025390625 319.5454521179199 675.676025390625 320.5454521179199 676.676025390625 320.5454521179199 L 694.676025390625 320.5454521179199 " class="clickable"/></g><circle r="2" id="sprotty_e$TPU/r$rst_to_e$TPU/p$delay_instB/r$rst/junction0" transform="translate(674.676025390625, 320.5454521179199)" class="sprotty-junction junction" style="fill:rgb(112, 112, 112);stroke:none;"/></g><g id="sprotty_e$TPU/r$clk_to_e$TPU/p$systolic_array_inst/r$clk" class="sprotty-edge edge" style="fill:none;stroke:rgb(112, 112, 112);stroke-linejoin:round;"><g><path d="M 0 36 L 859.7244262695312 36 C 860.7244262695312 36 861.7244262695312 37 861.7244262695312 38 L 861.7244262695312 83.71212100982666 C 861.7244262695312 84.71212100982666 862.7244262695312 85.71212100982666 863.7244262695312 85.71212100982666 L 881.7244262695312 85.71212100982666 "/><path d="M 0 36 L 859.7244262695312 36 C 860.7244262695312 36 861.7244262695312 37 861.7244262695312 38 L 861.7244262695312 83.71212100982666 C 861.7244262695312 84.71212100982666 862.7244262695312 85.71212100982666 863.7244262695312 85.71212100982666 L 881.7244262695312 85.71212100982666 " class="clickable"/></g><circle r="2" id="sprotty_e$TPU/r$clk_to_e$TPU/p$systolic_array_inst/r$clk/junction0" transform="translate(861.7244262695312, 36)" class="sprotty-junction junction" style="fill:rgb(112, 112, 112);stroke:none;"/></g><g id="sprotty_e$TPU/r$rst_to_e$TPU/p$systolic_array_inst/r$rst" class="sprotty-edge edge" style="fill:none;stroke:rgb(112, 112, 112);stroke-linejoin:round;"><g><path d="M 0 113.13636302947998 L 881.7244262695312 113.13636302947998 "/><path d="M 0 113.13636302947998 L 881.7244262695312 113.13636302947998 " class="clickable"/></g></g><g id="sprotty_e$TPU/r$clk_to_e$TPU/p$PISO_inst/r$clk" class="sprotty-edge edge" style="fill:none;stroke:rgb(112, 112, 112);stroke-linejoin:round;"><g><path d="M 0 36 L 1190.1702880859375 36 C 1191.1702880859375 36 1192.1702880859375 37 1192.1702880859375 38 L 1192.1702880859375 434.39393615722656 C 1192.1702880859375 435.39393615722656 1193.1702880859375 436.39393615722656 1194.1702880859375 436.39393615722656 L 1212.1702880859375 436.39393615722656 "/><path d="M 0 36 L 1190.1702880859375 36 C 1191.1702880859375 36 1192.1702880859375 37 1192.1702880859375 38 L 1192.1702880859375 434.39393615722656 C 1192.1702880859375 435.39393615722656 1193.1702880859375 436.39393615722656 1194.1702880859375 436.39393615722656 L 1212.1702880859375 436.39393615722656 " class="clickable"/></g></g><g id="sprotty_e$TPU/r$rst_to_e$TPU/p$PISO_inst/r$rst" class="sprotty-edge edge" style="fill:none;stroke:rgb(112, 112, 112);stroke-linejoin:round;"><g><path d="M 0 113.13636302947998 L 672.676025390625 113.13636302947998 C 673.676025390625 113.13636302947998 674.676025390625 114.13636302947998 674.676025390625 115.13636302947998 L 674.676025390625 374.6818151473999 C 674.676025390625 375.6818151473999 675.676025390625 376.6818151473999 676.676025390625 376.6818151473999 L 1180.1702880859375 376.6818151473999 C 1181.1702880859375 376.6818151473999 1182.1702880859375 377.6818151473999 1182.1702880859375 378.6818151473999 L 1182.1702880859375 461.8181781768799 C 1182.1702880859375 462.8181781768799 1183.1702880859375 463.8181781768799 1184.1702880859375 463.8181781768799 L 1212.1702880859375 463.8181781768799 "/><path d="M 0 113.13636302947998 L 672.676025390625 113.13636302947998 C 673.676025390625 113.13636302947998 674.676025390625 114.13636302947998 674.676025390625 115.13636302947998 L 674.676025390625 374.6818151473999 C 674.676025390625 375.6818151473999 675.676025390625 376.6818151473999 676.676025390625 376.6818151473999 L 1180.1702880859375 376.6818151473999 C 1181.1702880859375 376.6818151473999 1182.1702880859375 377.6818151473999 1182.1702880859375 378.6818151473999 L 1182.1702880859375 461.8181781768799 C 1182.1702880859375 462.8181781768799 1183.1702880859375 463.8181781768799 1184.1702880859375 463.8181781768799 L 1212.1702880859375 463.8181781768799 " class="clickable"/></g></g><g id="sprotty_e$TPU/p$bufferA/r$data_out_mem_to_e$TPU/p$delay_instA/r$data_in" class="sprotty-edge thick edge" style="fill:none;stroke:rgb(112, 112, 112);stroke-linejoin:round;stroke-width:3px;"><g><path d="M 654.676025390625 767.6363563537598 L 662.676025390625 767.6363563537598 C 663.676025390625 767.6363563537598 664.676025390625 766.6363563537598 664.676025390625 765.6363563537598 L 664.676025390625 219.69696807861328 C 664.676025390625 218.69696807861328 665.676025390625 217.69696807861328 666.676025390625 217.69696807861328 L 694.8360290527344 217.69696807861328 "/><path d="M 654.676025390625 767.6363563537598 L 662.676025390625 767.6363563537598 C 663.676025390625 767.6363563537598 664.676025390625 766.6363563537598 664.676025390625 765.6363563537598 L 664.676025390625 219.69696807861328 C 664.676025390625 218.69696807861328 665.676025390625 217.69696807861328 666.676025390625 217.69696807861328 L 694.8360290527344 217.69696807861328 " class="clickable"/></g></g><g id="sprotty_e$TPU/p$bufferB/r$data_out_mem_to_e$TPU/p$delay_instB/r$data_in" class="sprotty-edge thick edge" style="fill:none;stroke:rgb(112, 112, 112);stroke-linejoin:round;stroke-width:3px;"><g><path d="M 654.676025390625 1007.606050491333 L 682.676025390625 1007.606050491333 C 683.676025390625 1007.606050491333 684.676025390625 1006.606050491333 684.676025390625 1005.606050491333 L 684.676025390625 349.96969413757324 C 684.676025390625 348.96969413757324 685.676025390625 347.96969413757324 686.676025390625 347.96969413757324 L 694.676025390625 347.96969413757324 "/><path d="M 654.676025390625 1007.606050491333 L 682.676025390625 1007.606050491333 C 683.676025390625 1007.606050491333 684.676025390625 1006.606050491333 684.676025390625 1005.606050491333 L 684.676025390625 349.96969413757324 C 684.676025390625 348.96969413757324 685.676025390625 347.96969413757324 686.676025390625 347.96969413757324 L 694.676025390625 347.96969413757324 " class="clickable"/></g></g><g id="sprotty_e$TPU/p$systolic_array_inst/r$array_out_to_e$TPU/p$PISO_inst/r$data_in" class="sprotty-edge thick edge" style="fill:none;stroke:rgb(112, 112, 112);stroke-linejoin:round;stroke-width:3px;"><g><path d="M 1162.1703186035156 126.84848403930664 L 1170.1702880859375 126.84848403930664 C 1171.1702880859375 126.84848403930664 1172.1702880859375 127.84848403930664 1172.1702880859375 128.84848403930664 L 1172.1702880859375 516.6666622161865 C 1172.1702880859375 517.6666622161865 1173.1702880859375 518.6666622161865 1174.1702880859375 518.6666622161865 L 1212.1702880859375 518.6666622161865 "/><path d="M 1162.1703186035156 126.84848403930664 L 1170.1702880859375 126.84848403930664 C 1171.1702880859375 126.84848403930664 1172.1702880859375 127.84848403930664 1172.1702880859375 128.84848403930664 L 1172.1702880859375 516.6666622161865 C 1172.1702880859375 517.6666622161865 1173.1702880859375 518.6666622161865 1174.1702880859375 518.6666622161865 L 1212.1702880859375 518.6666622161865 " class="clickable"/></g></g><g id="sprotty_e$TPU/p$delay_instA/r$data_out_to_e$TPU/p$systolic_array_inst/r$data_inA" class="sprotty-edge thick edge" style="fill:none;stroke:rgb(112, 112, 112);stroke-linejoin:round;stroke-width:3px;"><g><path d="M 851.2444152832031 190.27272605895996 L 859.7244262695312 190.27272605895996 C 860.7244262695312 190.27272605895996 861.7244262695312 189.27272605895996 861.7244262695312 188.27272605895996 L 861.7244262695312 142.5606050491333 C 861.7244262695312 141.5606050491333 862.7244262695312 140.5606050491333 863.7244262695312 140.5606050491333 L 881.7244262695312 140.5606050491333 "/><path d="M 851.2444152832031 190.27272605895996 L 859.7244262695312 190.27272605895996 C 860.7244262695312 190.27272605895996 861.7244262695312 189.27272605895996 861.7244262695312 188.27272605895996 L 861.7244262695312 142.5606050491333 C 861.7244262695312 141.5606050491333 862.7244262695312 140.5606050491333 863.7244262695312 140.5606050491333 L 881.7244262695312 140.5606050491333 " class="clickable"/></g></g><g id="sprotty_e$TPU/p$delay_instB/r$data_out_to_e$TPU/p$systolic_array_inst/r$data_inB" class="sprotty-edge thick edge" style="fill:none;stroke:rgb(112, 112, 112);stroke-linejoin:round;stroke-width:3px;"><g><path d="M 851.7244262695312 320.5454521179199 L 869.7244262695312 320.5454521179199 C 870.7244262695312 320.5454521179199 871.7244262695312 319.5454521179199 871.7244262695312 318.5454521179199 L 871.7244262695312 169.98484706878662 C 871.7244262695312 168.98484706878662 872.7244262695312 167.98484706878662 873.7244262695312 167.98484706878662 L 881.7244262695312 167.98484706878662 "/><path d="M 851.7244262695312 320.5454521179199 L 869.7244262695312 320.5454521179199 C 870.7244262695312 320.5454521179199 871.7244262695312 319.5454521179199 871.7244262695312 318.5454521179199 L 871.7244262695312 169.98484706878662 C 871.7244262695312 168.98484706878662 872.7244262695312 167.98484706878662 873.7244262695312 167.98484706878662 L 881.7244262695312 167.98484706878662 " class="clickable"/></g></g><g id="sprotty_e$TPU/p$controller_inst/r$mem_enableA_to_e$TPU/p$bufferA/r$mem_enable" class="sprotty-edge edge" style="fill:none;stroke:rgb(112, 112, 112);stroke-linejoin:round;"><g><path d="M 309.85406494140625 551.2272672653198 L 397.85406494140625 551.2272672653198 C 398.85406494140625 551.2272672653198 399.85406494140625 552.2272672653198 399.85406494140625 553.2272672653198 L 399.85406494140625 765.6363563537598 C 399.85406494140625 766.6363563537598 400.85406494140625 767.6363563537598 401.85406494140625 767.6363563537598 L 469.85406494140625 767.6363563537598 "/><path d="M 309.85406494140625 551.2272672653198 L 397.85406494140625 551.2272672653198 C 398.85406494140625 551.2272672653198 399.85406494140625 552.2272672653198 399.85406494140625 553.2272672653198 L 399.85406494140625 765.6363563537598 C 399.85406494140625 766.6363563537598 400.85406494140625 767.6363563537598 401.85406494140625 767.6363563537598 L 469.85406494140625 767.6363563537598 " class="clickable"/></g></g><g id="sprotty_e$TPU/p$controller_inst/r$mem_enableB_to_e$TPU/p$bufferB/r$mem_enable" class="sprotty-edge edge" style="fill:none;stroke:rgb(112, 112, 112);stroke-linejoin:round;"><g><path d="M 309.85406494140625 660.9242353439331 L 357.85406494140625 660.9242353439331 C 358.85406494140625 660.9242353439331 359.85406494140625 661.9242353439331 359.85406494140625 662.9242353439331 L 359.85406494140625 1005.606050491333 C 359.85406494140625 1006.606050491333 360.85406494140625 1007.606050491333 361.85406494140625 1007.606050491333 L 469.85406494140625 1007.606050491333 "/><path d="M 309.85406494140625 660.9242353439331 L 357.85406494140625 660.9242353439331 C 358.85406494140625 660.9242353439331 359.85406494140625 661.9242353439331 359.85406494140625 662.9242353439331 L 359.85406494140625 1005.606050491333 C 359.85406494140625 1006.606050491333 360.85406494140625 1007.606050491333 361.85406494140625 1007.606050491333 L 469.85406494140625 1007.606050491333 " class="clickable"/></g></g><g id="sprotty_e$TPU/p$controller_inst/r$selA_a_to_e$TPU/p$bufferA/r$sel_a" class="sprotty-edge thick edge" style="fill:none;stroke:rgb(112, 112, 112);stroke-linejoin:round;stroke-width:3px;"><g><path d="M 309.85406494140625 468.95454120635986 L 417.85406494140625 468.95454120635986 C 418.85406494140625 468.95454120635986 419.85406494140625 469.95454120635986 419.85406494140625 470.95454120635986 L 419.85406494140625 820.4848403930664 C 419.85406494140625 821.4848403930664 420.85406494140625 822.4848403930664 421.85406494140625 822.4848403930664 L 469.85406494140625 822.4848403930664 "/><path d="M 309.85406494140625 468.95454120635986 L 417.85406494140625 468.95454120635986 C 418.85406494140625 468.95454120635986 419.85406494140625 469.95454120635986 419.85406494140625 470.95454120635986 L 419.85406494140625 820.4848403930664 C 419.85406494140625 821.4848403930664 420.85406494140625 822.4848403930664 421.85406494140625 822.4848403930664 L 469.85406494140625 822.4848403930664 " class="clickable"/></g></g><g id="sprotty_e$TPU/p$controller_inst/r$selA_n_to_e$TPU/p$bufferA/r$sel_n" class="sprotty-edge thick edge" style="fill:none;stroke:rgb(112, 112, 112);stroke-linejoin:round;stroke-width:3px;"><g><path d="M 309.85406494140625 496.3787832260132 L 387.85406494140625 496.3787832260132 C 388.85406494140625 496.3787832260132 389.85406494140625 497.3787832260132 389.85406494140625 498.3787832260132 L 389.85406494140625 847.9090824127197 C 389.85406494140625 848.9090824127197 390.85406494140625 849.9090824127197 391.85406494140625 849.9090824127197 L 469.85406494140625 849.9090824127197 "/><path d="M 309.85406494140625 496.3787832260132 L 387.85406494140625 496.3787832260132 C 388.85406494140625 496.3787832260132 389.85406494140625 497.3787832260132 389.85406494140625 498.3787832260132 L 389.85406494140625 847.9090824127197 C 389.85406494140625 848.9090824127197 390.85406494140625 849.9090824127197 391.85406494140625 849.9090824127197 L 469.85406494140625 849.9090824127197 " class="clickable"/></g></g><g id="sprotty_e$TPU/p$controller_inst/r$selB_a_to_e$TPU/p$bufferB/r$sel_a" class="sprotty-edge thick edge" style="fill:none;stroke:rgb(112, 112, 112);stroke-linejoin:round;stroke-width:3px;"><g><path d="M 309.85406494140625 578.6515092849731 L 377.85406494140625 578.6515092849731 C 378.85406494140625 578.6515092849731 379.85406494140625 579.6515092849731 379.85406494140625 580.6515092849731 L 379.85406494140625 1060.4545345306396 C 379.85406494140625 1061.4545345306396 380.85406494140625 1062.4545345306396 381.85406494140625 1062.4545345306396 L 469.85406494140625 1062.4545345306396 "/><path d="M 309.85406494140625 578.6515092849731 L 377.85406494140625 578.6515092849731 C 378.85406494140625 578.6515092849731 379.85406494140625 579.6515092849731 379.85406494140625 580.6515092849731 L 379.85406494140625 1060.4545345306396 C 379.85406494140625 1061.4545345306396 380.85406494140625 1062.4545345306396 381.85406494140625 1062.4545345306396 L 469.85406494140625 1062.4545345306396 " class="clickable"/></g></g><g id="sprotty_e$TPU/p$controller_inst/r$selB_m_to_e$TPU/p$bufferB/r$sel_n" class="sprotty-edge thick edge" style="fill:none;stroke:rgb(112, 112, 112);stroke-linejoin:round;stroke-width:3px;"><g><path d="M 309.85406494140625 606.0757513046265 L 347.85406494140625 606.0757513046265 C 348.85406494140625 606.0757513046265 349.85406494140625 607.0757513046265 349.85406494140625 608.0757513046265 L 349.85406494140625 1087.878776550293 C 349.85406494140625 1088.878776550293 350.85406494140625 1089.878776550293 351.85406494140625 1089.878776550293 L 469.85406494140625 1089.878776550293 "/><path d="M 309.85406494140625 606.0757513046265 L 347.85406494140625 606.0757513046265 C 348.85406494140625 606.0757513046265 349.85406494140625 607.0757513046265 349.85406494140625 608.0757513046265 L 349.85406494140625 1087.878776550293 C 349.85406494140625 1088.878776550293 350.85406494140625 1089.878776550293 351.85406494140625 1089.878776550293 L 469.85406494140625 1089.878776550293 " class="clickable"/></g></g><g id="sprotty_e$TPU/p$controller_inst/r$selO_m_to_e$TPU/p$PISO_inst/r$selO_m" class="sprotty-edge thick edge" style="fill:none;stroke:rgb(112, 112, 112);stroke-linejoin:round;stroke-width:3px;"><g><path d="M 309.85406494140625 743.1969614028931 L 317.85406494140625 743.1969614028931 C 318.85406494140625 743.1969614028931 319.85406494140625 744.1969614028931 319.85406494140625 745.1969614028931 L 319.85406494140625 1136.5908975601196 C 319.85406494140625 1137.5908975601196 320.85406494140625 1138.5908975601196 321.85406494140625 1138.5908975601196 L 1200.1702880859375 1138.5908975601196 C 1201.1702880859375 1138.5908975601196 1202.1702880859375 1137.5908975601196 1202.1702880859375 1136.5908975601196 L 1202.1702880859375 575.5151462554932 C 1202.1702880859375 574.5151462554932 1203.1702880859375 573.5151462554932 1204.1702880859375 573.5151462554932 L 1212.1702880859375 573.5151462554932 "/><path d="M 309.85406494140625 743.1969614028931 L 317.85406494140625 743.1969614028931 C 318.85406494140625 743.1969614028931 319.85406494140625 744.1969614028931 319.85406494140625 745.1969614028931 L 319.85406494140625 1136.5908975601196 C 319.85406494140625 1137.5908975601196 320.85406494140625 1138.5908975601196 321.85406494140625 1138.5908975601196 L 1200.1702880859375 1138.5908975601196 C 1201.1702880859375 1138.5908975601196 1202.1702880859375 1137.5908975601196 1202.1702880859375 1136.5908975601196 L 1202.1702880859375 575.5151462554932 C 1202.1702880859375 574.5151462554932 1203.1702880859375 573.5151462554932 1204.1702880859375 573.5151462554932 L 1212.1702880859375 573.5151462554932 " class="clickable"/></g></g><g id="sprotty_e$TPU/p$controller_inst/r$selO_n_to_e$TPU/p$PISO_inst/r$selO_n" class="sprotty-edge thick edge" style="fill:none;stroke:rgb(112, 112, 112);stroke-linejoin:round;stroke-width:3px;"><g><path d="M 309.85406494140625 715.7727193832397 L 327.85406494140625 715.7727193832397 C 328.85406494140625 715.7727193832397 329.85406494140625 716.7727193832397 329.85406494140625 717.7727193832397 L 329.85406494140625 1126.5908975601196 C 329.85406494140625 1127.5908975601196 330.85406494140625 1128.5908975601196 331.85406494140625 1128.5908975601196 L 1190.1702880859375 1128.5908975601196 C 1191.1702880859375 1128.5908975601196 1192.1702880859375 1127.5908975601196 1192.1702880859375 1126.5908975601196 L 1192.1702880859375 548.0909042358398 C 1192.1702880859375 547.0909042358398 1193.1702880859375 546.0909042358398 1194.1702880859375 546.0909042358398 L 1212.1702880859375 546.0909042358398 "/><path d="M 309.85406494140625 715.7727193832397 L 327.85406494140625 715.7727193832397 C 328.85406494140625 715.7727193832397 329.85406494140625 716.7727193832397 329.85406494140625 717.7727193832397 L 329.85406494140625 1126.5908975601196 C 329.85406494140625 1127.5908975601196 330.85406494140625 1128.5908975601196 331.85406494140625 1128.5908975601196 L 1190.1702880859375 1128.5908975601196 C 1191.1702880859375 1128.5908975601196 1192.1702880859375 1127.5908975601196 1192.1702880859375 1126.5908975601196 L 1192.1702880859375 548.0909042358398 C 1192.1702880859375 547.0909042358398 1193.1702880859375 546.0909042358398 1194.1702880859375 546.0909042358398 L 1212.1702880859375 546.0909042358398 " class="clickable"/></g></g><g id="sprotty_e$TPU/p$controller_inst/r$send_to_e$TPU/p$PISO_inst/r$send" class="sprotty-edge edge" style="fill:none;stroke:rgb(112, 112, 112);stroke-linejoin:round;"><g><path d="M 309.85406494140625 688.3484773635864 L 337.85406494140625 688.3484773635864 C 338.85406494140625 688.3484773635864 339.85406494140625 689.3484773635864 339.85406494140625 690.3484773635864 L 339.85406494140625 1116.5908975601196 C 339.85406494140625 1117.5908975601196 340.85406494140625 1118.5908975601196 341.85406494140625 1118.5908975601196 L 1180.1702880859375 1118.5908975601196 C 1181.1702880859375 1118.5908975601196 1182.1702880859375 1117.5908975601196 1182.1702880859375 1116.5908975601196 L 1182.1702880859375 493.2424201965332 C 1182.1702880859375 492.2424201965332 1183.1702880859375 491.2424201965332 1184.1702880859375 491.2424201965332 L 1212.1702880859375 491.2424201965332 "/><path d="M 309.85406494140625 688.3484773635864 L 337.85406494140625 688.3484773635864 C 338.85406494140625 688.3484773635864 339.85406494140625 689.3484773635864 339.85406494140625 690.3484773635864 L 339.85406494140625 1116.5908975601196 C 339.85406494140625 1117.5908975601196 340.85406494140625 1118.5908975601196 341.85406494140625 1118.5908975601196 L 1180.1702880859375 1118.5908975601196 C 1181.1702880859375 1118.5908975601196 1182.1702880859375 1117.5908975601196 1182.1702880859375 1116.5908975601196 L 1182.1702880859375 493.2424201965332 C 1182.1702880859375 492.2424201965332 1183.1702880859375 491.2424201965332 1184.1702880859375 491.2424201965332 L 1212.1702880859375 491.2424201965332 " class="clickable"/></g></g><g id="sprotty_e$TPU/p$controller_inst/r$wr_rd_A_to_e$TPU/p$bufferA/r$wr_rd" class="sprotty-edge edge" style="fill:none;stroke:rgb(112, 112, 112);stroke-linejoin:round;"><g><path d="M 309.85406494140625 523.8030252456665 L 407.85406494140625 523.8030252456665 C 408.85406494140625 523.8030252456665 409.85406494140625 524.8030252456665 409.85406494140625 525.8030252456665 L 409.85406494140625 793.0605983734131 C 409.85406494140625 794.0605983734131 410.85406494140625 795.0605983734131 411.85406494140625 795.0605983734131 L 469.85406494140625 795.0605983734131 "/><path d="M 309.85406494140625 523.8030252456665 L 407.85406494140625 523.8030252456665 C 408.85406494140625 523.8030252456665 409.85406494140625 524.8030252456665 409.85406494140625 525.8030252456665 L 409.85406494140625 793.0605983734131 C 409.85406494140625 794.0605983734131 410.85406494140625 795.0605983734131 411.85406494140625 795.0605983734131 L 469.85406494140625 795.0605983734131 " class="clickable"/></g></g><g id="sprotty_e$TPU/p$controller_inst/r$wr_rd_B_to_e$TPU/p$bufferB/r$wr_rd" class="sprotty-edge edge" style="fill:none;stroke:rgb(112, 112, 112);stroke-linejoin:round;"><g><path d="M 309.85406494140625 633.4999933242798 L 367.85406494140625 633.4999933242798 C 368.85406494140625 633.4999933242798 369.85406494140625 634.4999933242798 369.85406494140625 635.4999933242798 L 369.85406494140625 1033.0302925109863 C 369.85406494140625 1034.0302925109863 370.85406494140625 1035.0302925109863 371.85406494140625 1035.0302925109863 L 469.85406494140625 1035.0302925109863 "/><path d="M 309.85406494140625 633.4999933242798 L 367.85406494140625 633.4999933242798 C 368.85406494140625 633.4999933242798 369.85406494140625 634.4999933242798 369.85406494140625 635.4999933242798 L 369.85406494140625 1033.0302925109863 C 369.85406494140625 1034.0302925109863 370.85406494140625 1035.0302925109863 371.85406494140625 1035.0302925109863 L 469.85406494140625 1035.0302925109863 " class="clickable"/></g></g><g id="sprotty_e$TPU/p$PISO_inst" class="instantiation" transform="translate(1212.1702880859375, 398.6818151473999)"><g class="sprotty-block" style="fill:rgb(255, 255, 255);stroke:rgb(48, 48, 48);stroke-dasharray:0px;"><rect x="0" y="0" rx="1" ry="1" width="135.99871826171875" height="192.54545211791992"/><text x="67.99935913085938" y="12" class="sprotty-block-name-openable sprotty-block-name" style="dominant-baseline:middle;fill:rgb(48, 48, 48);font-size:16px;font-weight:700;perspective-origin:49.8935px 8.19129px;stroke:rgba(0, 0, 0, 0);text-anchor:middle;">PISO_inst : PISO</text><line x1="0" y1="20" x2="135.99871826171875" y2="20"/></g><g id="sprotty_e$TPU/p$PISO_inst/r$selO_m" class="triangle" transform="translate(0, 174.83333110809326)"><path d="M 0,0 L 5,2.5 L 0,5 Z" transform="translate(-1.67, -2.5)" class="sprotty-port" style="fill:rgb(48, 48, 48);stroke:rgb(48, 48, 48);"/><text class="clickable sprotty-label port" id="sprotty_e$TPU/p$PISO_inst/r$selO_m/label" transform="translate(6, -8.71212100982666) translate(21.963777542114258, 13.636363983154297)" style="cursor:default;fill:rgb(48, 48, 48);font-size:12px;perspective-origin:8.02557px 1.43229px;text-anchor:middle;">selO_m</text></g><g id="sprotty_e$TPU/p$PISO_inst/r$selO_n" class="triangle" transform="translate(0, 147.40908908843994)"><path d="M 0,0 L 5,2.5 L 0,5 Z" transform="translate(-1.67, -2.5)" class="sprotty-port" style="fill:rgb(48, 48, 48);stroke:rgb(48, 48, 48);"/><text class="clickable sprotty-label port" id="sprotty_e$TPU/p$PISO_inst/r$selO_n/label" transform="translate(6, -8.71212100982666) translate(20.07575798034668, 13.636363983154297)" style="cursor:default;fill:rgb(48, 48, 48);font-size:12px;perspective-origin:7.31534px 1.43229px;text-anchor:middle;">selO_n</text></g><g id="sprotty_e$TPU/p$PISO_inst/r$data_in" class="triangle" transform="translate(0, 119.98484706878662)"><path d="M 0,0 L 5,2.5 L 0,5 Z" transform="translate(-1.67, -2.5)" class="sprotty-port" style="fill:rgb(48, 48, 48);stroke:rgb(48, 48, 48);"/><text class="clickable sprotty-label port" id="sprotty_e$TPU/p$PISO_inst/r$data_in/label" transform="translate(6, -8.71212100982666) translate(21.188446044921875, 13.636363983154297)" style="cursor:default;fill:rgb(48, 48, 48);font-size:12px;perspective-origin:8.02557px 1.43229px;text-anchor:middle;">data_in</text></g><g id="sprotty_e$TPU/p$PISO_inst/r$send" class="triangle" transform="translate(0, 92.5606050491333)"><path d="M 0,0 L 5,2.5 L 0,5 Z" transform="translate(-1.67, -2.5)" class="sprotty-port" style="fill:rgb(48, 48, 48);stroke:rgb(48, 48, 48);"/><text class="clickable sprotty-label port" id="sprotty_e$TPU/p$PISO_inst/r$send/label" transform="translate(6, -8.71212100982666) translate(14.275568008422852, 13.636363983154297)" style="cursor:default;fill:rgb(48, 48, 48);font-size:12px;perspective-origin:5.11364px 1.43229px;text-anchor:middle;">send</text></g><g id="sprotty_e$TPU/p$PISO_inst/r$rst" class="triangle" transform="translate(0, 65.13636302947998)"><path d="M 0,0 L 5,2.5 L 0,5 Z" transform="translate(-1.67, -2.5)" class="sprotty-port" style="fill:rgb(48, 48, 48);stroke:rgb(48, 48, 48);"/><text class="clickable sprotty-label port" id="sprotty_e$TPU/p$PISO_inst/r$rst/label" transform="translate(6, -8.71212100982666) translate(7.244318008422852, 13.636363983154297)" style="cursor:default;fill:rgb(48, 48, 48);font-size:12px;perspective-origin:2.73438px 1.43229px;text-anchor:middle;">rst</text></g><g id="sprotty_e$TPU/p$PISO_inst/r$clk" class="triangle" transform="translate(0, 37.71212100982666)"><path d="M 0,0 L 5,2.5 L 0,5 Z" transform="translate(-1.67, -2.5)" class="sprotty-port" style="fill:rgb(48, 48, 48);stroke:rgb(48, 48, 48);"/><text class="clickable sprotty-label port" id="sprotty_e$TPU/p$PISO_inst/r$clk/label" transform="translate(6, -8.71212100982666) translate(8.078835487365723, 13.636363983154297)" style="cursor:default;fill:rgb(48, 48, 48);font-size:12px;perspective-origin:3.05398px 1.43229px;text-anchor:middle;">clk</text></g><g id="sprotty_e$TPU/p$PISO_inst/r$data_out" class="triangle" transform="translate(135.99871826171875, 106.27272605895996)"><path d="M 0,0 L 5,2.5 L 0,5 Z" transform="translate(-1.67, -2.5)" class="sprotty-port" style="fill:rgb(48, 48, 48);stroke:rgb(48, 48, 48);"/><text class="clickable sprotty-label port" id="sprotty_e$TPU/p$PISO_inst/r$data_out/label" transform="translate(-57.59898376464844, -8.71212100982666) translate(25.41429901123047, 13.636363983154297)" style="cursor:default;fill:rgb(48, 48, 48);font-size:12px;perspective-origin:9.62358px 1.43229px;text-anchor:middle;">data_out</text></g></g><g id="sprotty_e$TPU/p$systolic_array_inst" class="instantiation" transform="translate(881.7244262695312, 48)"><g class="sprotty-block" style="fill:rgb(255, 255, 255);stroke:rgb(48, 48, 48);stroke-dasharray:0px;"><rect x="0" y="0" rx="1" ry="1" width="280.4458923339844" height="137.69696807861328"/><text x="140.2229461669922" y="12" class="sprotty-block-name-openable sprotty-block-name" style="dominant-baseline:middle;fill:rgb(48, 48, 48);font-size:16px;font-weight:700;perspective-origin:104.439px 8.19129px;stroke:rgba(0, 0, 0, 0);text-anchor:middle;">systolic_array_inst : systolic_array</text><line x1="0" y1="20" x2="280.4458923339844" y2="20"/></g><g id="sprotty_e$TPU/p$systolic_array_inst/r$data_inB" class="triangle" transform="translate(0, 119.98484706878662)"><path d="M 0,0 L 5,2.5 L 0,5 Z" transform="translate(-1.67, -2.5)" class="sprotty-port" style="fill:rgb(48, 48, 48);stroke:rgb(48, 48, 48);"/><text class="clickable sprotty-label port" id="sprotty_e$TPU/p$systolic_array_inst/r$data_inB/label" transform="translate(6, -8.71212100982666) translate(25.13020896911621, 13.636363983154297)" style="cursor:default;fill:rgb(48, 48, 48);font-size:12px;perspective-origin:9.51705px 1.43229px;text-anchor:middle;">data_inB</text></g><g id="sprotty_e$TPU/p$systolic_array_inst/r$data_inA" class="triangle" transform="translate(0, 92.5606050491333)"><path d="M 0,0 L 5,2.5 L 0,5 Z" transform="translate(-1.67, -2.5)" class="sprotty-port" style="fill:rgb(48, 48, 48);stroke:rgb(48, 48, 48);"/><text class="clickable sprotty-label port" id="sprotty_e$TPU/p$systolic_array_inst/r$data_inA/label" transform="translate(6, -8.71212100982666) translate(24.82836151123047, 13.636363983154297)" style="cursor:default;fill:rgb(48, 48, 48);font-size:12px;perspective-origin:9.39867px 1.43229px;text-anchor:middle;">data_inA</text></g><g id="sprotty_e$TPU/p$systolic_array_inst/r$rst" class="triangle" transform="translate(0, 65.13636302947998)"><path d="M 0,0 L 5,2.5 L 0,5 Z" transform="translate(-1.67, -2.5)" class="sprotty-port" style="fill:rgb(48, 48, 48);stroke:rgb(48, 48, 48);"/><text class="clickable sprotty-label port" id="sprotty_e$TPU/p$systolic_array_inst/r$rst/label" transform="translate(6, -8.71212100982666) translate(7.244318008422852, 13.636363983154297)" style="cursor:default;fill:rgb(48, 48, 48);font-size:12px;perspective-origin:2.73438px 1.43229px;text-anchor:middle;">rst</text></g><g id="sprotty_e$TPU/p$systolic_array_inst/r$clk" class="triangle" transform="translate(0, 37.71212100982666)"><path d="M 0,0 L 5,2.5 L 0,5 Z" transform="translate(-1.67, -2.5)" class="sprotty-port" style="fill:rgb(48, 48, 48);stroke:rgb(48, 48, 48);"/><text class="clickable sprotty-label port" id="sprotty_e$TPU/p$systolic_array_inst/r$clk/label" transform="translate(6, -8.71212100982666) translate(8.078835487365723, 13.636363983154297)" style="cursor:default;fill:rgb(48, 48, 48);font-size:12px;perspective-origin:3.05398px 1.43229px;text-anchor:middle;">clk</text></g><g id="sprotty_e$TPU/p$systolic_array_inst/r$array_out" class="triangle" transform="translate(280.4458923339844, 78.84848403930664)"><path d="M 0,0 L 5,2.5 L 0,5 Z" transform="translate(-1.67, -2.5)" class="sprotty-port" style="fill:rgb(48, 48, 48);stroke:rgb(48, 48, 48);"/><text class="clickable sprotty-label port" id="sprotty_e$TPU/p$systolic_array_inst/r$array_out/label" transform="translate(-61.34299087524414, -8.71212100982666) translate(27.284564971923828, 13.636363983154297)" style="cursor:default;fill:rgb(48, 48, 48);font-size:12px;perspective-origin:10.3338px 1.43229px;text-anchor:middle;">array_out</text></g></g><g id="sprotty_e$TPU/p$delay_instB" class="instantiation" transform="translate(694.676025390625, 255.40908908843994)"><g class="sprotty-block" style="fill:rgb(255, 255, 255);stroke:rgb(48, 48, 48);stroke-dasharray:0px;"><rect x="0" y="0" rx="1" ry="1" width="157.04840087890625" height="110.27272605895996"/><text x="78.52420043945312" y="12" class="sprotty-block-name-openable sprotty-block-name" style="dominant-baseline:middle;fill:rgb(48, 48, 48);font-size:16px;font-weight:700;perspective-origin:57.848px 8.19129px;stroke:rgba(0, 0, 0, 0);text-anchor:middle;">delay_instB : delay</text><line x1="0" y1="20" x2="157.04840087890625" y2="20"/></g><g id="sprotty_e$TPU/p$delay_instB/r$data_in" class="triangle" transform="translate(0, 92.5606050491333)"><path d="M 0,0 L 5,2.5 L 0,5 Z" transform="translate(-1.67, -2.5)" class="sprotty-port" style="fill:rgb(48, 48, 48);stroke:rgb(48, 48, 48);"/><text class="clickable sprotty-label port" id="sprotty_e$TPU/p$delay_instB/r$data_in/label" transform="translate(6, -8.71212100982666) translate(21.188446044921875, 13.636363983154297)" style="cursor:default;fill:rgb(48, 48, 48);font-size:12px;perspective-origin:8.02557px 1.43229px;text-anchor:middle;">data_in</text></g><g id="sprotty_e$TPU/p$delay_instB/r$rst" class="triangle" transform="translate(0, 65.13636302947998)"><path d="M 0,0 L 5,2.5 L 0,5 Z" transform="translate(-1.67, -2.5)" class="sprotty-port" style="fill:rgb(48, 48, 48);stroke:rgb(48, 48, 48);"/><text class="clickable sprotty-label port" id="sprotty_e$TPU/p$delay_instB/r$rst/label" transform="translate(6, -8.71212100982666) translate(7.244318008422852, 13.636363983154297)" style="cursor:default;fill:rgb(48, 48, 48);font-size:12px;perspective-origin:2.73438px 1.43229px;text-anchor:middle;">rst</text></g><g id="sprotty_e$TPU/p$delay_instB/r$clk" class="triangle" transform="translate(0, 37.71212100982666)"><path d="M 0,0 L 5,2.5 L 0,5 Z" transform="translate(-1.67, -2.5)" class="sprotty-port" style="fill:rgb(48, 48, 48);stroke:rgb(48, 48, 48);"/><text class="clickable sprotty-label port" id="sprotty_e$TPU/p$delay_instB/r$clk/label" transform="translate(6, -8.71212100982666) translate(8.078835487365723, 13.636363983154297)" style="cursor:default;fill:rgb(48, 48, 48);font-size:12px;perspective-origin:3.05398px 1.43229px;text-anchor:middle;">clk</text></g><g id="sprotty_e$TPU/p$delay_instB/r$data_out" class="triangle" transform="translate(157.04840087890625, 65.13636302947998)"><path d="M 0,0 L 5,2.5 L 0,5 Z" transform="translate(-1.67, -2.5)" class="sprotty-port" style="fill:rgb(48, 48, 48);stroke:rgb(48, 48, 48);"/><text class="clickable sprotty-label port" id="sprotty_e$TPU/p$delay_instB/r$data_out/label" transform="translate(-57.59898376464844, -8.71212100982666) translate(25.41429901123047, 13.636363983154297)" style="cursor:default;fill:rgb(48, 48, 48);font-size:12px;perspective-origin:9.62358px 1.43229px;text-anchor:middle;">data_out</text></g></g><g id="sprotty_e$TPU/p$delay_instA" class="instantiation" transform="translate(694.8360290527344, 125.13636302947998)"><g class="sprotty-block" style="fill:rgb(255, 255, 255);stroke:rgb(48, 48, 48);stroke-dasharray:0px;"><rect x="0" y="0" rx="1" ry="1" width="156.40838623046875" height="110.27272605895996"/><text x="78.20419311523438" y="12" class="sprotty-block-name-openable sprotty-block-name" style="dominant-baseline:middle;fill:rgb(48, 48, 48);font-size:16px;font-weight:700;perspective-origin:57.5994px 8.19129px;stroke:rgba(0, 0, 0, 0);text-anchor:middle;">delay_instA : delay</text><line x1="0" y1="20" x2="156.40838623046875" y2="20"/></g><g id="sprotty_e$TPU/p$delay_instA/r$data_in" class="triangle" transform="translate(0, 92.5606050491333)"><path d="M 0,0 L 5,2.5 L 0,5 Z" transform="translate(-1.67, -2.5)" class="sprotty-port" style="fill:rgb(48, 48, 48);stroke:rgb(48, 48, 48);"/><text class="clickable sprotty-label port" id="sprotty_e$TPU/p$delay_instA/r$data_in/label" transform="translate(6, -8.71212100982666) translate(21.188446044921875, 13.636363983154297)" style="cursor:default;fill:rgb(48, 48, 48);font-size:12px;perspective-origin:8.02557px 1.43229px;text-anchor:middle;">data_in</text></g><g id="sprotty_e$TPU/p$delay_instA/r$rst" class="triangle" transform="translate(0, 65.13636302947998)"><path d="M 0,0 L 5,2.5 L 0,5 Z" transform="translate(-1.67, -2.5)" class="sprotty-port" style="fill:rgb(48, 48, 48);stroke:rgb(48, 48, 48);"/><text class="clickable sprotty-label port" id="sprotty_e$TPU/p$delay_instA/r$rst/label" transform="translate(6, -8.71212100982666) translate(7.244318008422852, 13.636363983154297)" style="cursor:default;fill:rgb(48, 48, 48);font-size:12px;perspective-origin:2.73438px 1.43229px;text-anchor:middle;">rst</text></g><g id="sprotty_e$TPU/p$delay_instA/r$clk" class="triangle" transform="translate(0, 37.71212100982666)"><path d="M 0,0 L 5,2.5 L 0,5 Z" transform="translate(-1.67, -2.5)" class="sprotty-port" style="fill:rgb(48, 48, 48);stroke:rgb(48, 48, 48);"/><text class="clickable sprotty-label port" id="sprotty_e$TPU/p$delay_instA/r$clk/label" transform="translate(6, -8.71212100982666) translate(8.078835487365723, 13.636363983154297)" style="cursor:default;fill:rgb(48, 48, 48);font-size:12px;perspective-origin:3.05398px 1.43229px;text-anchor:middle;">clk</text></g><g id="sprotty_e$TPU/p$delay_instA/r$data_out" class="triangle" transform="translate(156.40838623046875, 65.13636302947998)"><path d="M 0,0 L 5,2.5 L 0,5 Z" transform="translate(-1.67, -2.5)" class="sprotty-port" style="fill:rgb(48, 48, 48);stroke:rgb(48, 48, 48);"/><text class="clickable sprotty-label port" id="sprotty_e$TPU/p$delay_instA/r$data_out/label" transform="translate(-57.59898376464844, -8.71212100982666) translate(25.41429901123047, 13.636363983154297)" style="cursor:default;fill:rgb(48, 48, 48);font-size:12px;perspective-origin:9.62358px 1.43229px;text-anchor:middle;">data_out</text></g></g><g id="sprotty_e$TPU/p$bufferB" class="instantiation" transform="translate(469.85406494140625, 887.6212034225464)"><g class="sprotty-block" style="fill:rgb(255, 255, 255);stroke:rgb(48, 48, 48);stroke-dasharray:0px;"><rect x="0" y="0" rx="1" ry="1" width="184.82196044921875" height="219.96969413757324"/><text x="92.41098022460938" y="12" class="sprotty-block-name-openable sprotty-block-name" style="dominant-baseline:middle;fill:rgb(48, 48, 48);font-size:16px;font-weight:700;perspective-origin:65.625px 8.19129px;stroke:rgba(0, 0, 0, 0);text-anchor:middle;">bufferB : inputCache</text><line x1="0" y1="20" x2="184.82196044921875" y2="20"/></g><g id="sprotty_e$TPU/p$bufferB/r$sel_n" class="triangle" transform="translate(0, 202.25757312774658)"><path d="M 0,0 L 5,2.5 L 0,5 Z" transform="translate(-1.67, -2.5)" class="sprotty-port" style="fill:rgb(48, 48, 48);stroke:rgb(48, 48, 48);"/><text class="clickable sprotty-label port" id="sprotty_e$TPU/p$bufferB/r$sel_n/label" transform="translate(6, -8.71212100982666) translate(15.625, 13.636363983154297)" style="cursor:default;fill:rgb(48, 48, 48);font-size:12px;perspective-origin:5.62263px 1.43229px;text-anchor:middle;">sel_n</text></g><g id="sprotty_e$TPU/p$bufferB/r$sel_a" class="triangle" transform="translate(0, 174.83333110809326)"><path d="M 0,0 L 5,2.5 L 0,5 Z" transform="translate(-1.67, -2.5)" class="sprotty-port" style="fill:rgb(48, 48, 48);stroke:rgb(48, 48, 48);"/><text class="clickable sprotty-label port" id="sprotty_e$TPU/p$bufferB/r$sel_a/label" transform="translate(6, -8.71212100982666) translate(15.340909004211426, 13.636363983154297)" style="cursor:default;fill:rgb(48, 48, 48);font-size:12px;perspective-origin:5.5161px 1.43229px;text-anchor:middle;">sel_a</text></g><g id="sprotty_e$TPU/p$bufferB/r$wr_rd" class="triangle" transform="translate(0, 147.40908908843994)"><path d="M 0,0 L 5,2.5 L 0,5 Z" transform="translate(-1.67, -2.5)" class="sprotty-port" style="fill:rgb(48, 48, 48);stroke:rgb(48, 48, 48);"/><text class="clickable sprotty-label port" id="sprotty_e$TPU/p$bufferB/r$wr_rd/label" transform="translate(6, -8.71212100982666) translate(17.234848022460938, 13.636363983154297)" style="cursor:default;fill:rgb(48, 48, 48);font-size:12px;perspective-origin:6.23816px 1.43229px;text-anchor:middle;">wr_rd</text></g><g id="sprotty_e$TPU/p$bufferB/r$mem_enable" class="triangle" transform="translate(0, 119.98484706878662)"><path d="M 0,0 L 5,2.5 L 0,5 Z" transform="translate(-1.67, -2.5)" class="sprotty-port" style="fill:rgb(48, 48, 48);stroke:rgb(48, 48, 48);"/><text class="clickable sprotty-label port" id="sprotty_e$TPU/p$bufferB/r$mem_enable/label" transform="translate(6, -8.71212100982666) translate(36.90814208984375, 13.636363983154297)" style="cursor:default;fill:rgb(48, 48, 48);font-size:12px;perspective-origin:13.9796px 1.43229px;text-anchor:middle;">mem_enable</text></g><g id="sprotty_e$TPU/p$bufferB/r$data_in" class="triangle" transform="translate(0, 92.5606050491333)"><path d="M 0,0 L 5,2.5 L 0,5 Z" transform="translate(-1.67, -2.5)" class="sprotty-port" style="fill:rgb(48, 48, 48);stroke:rgb(48, 48, 48);"/><text class="clickable sprotty-label port" id="sprotty_e$TPU/p$bufferB/r$data_in/label" transform="translate(6, -8.71212100982666) translate(21.188446044921875, 13.636363983154297)" style="cursor:default;fill:rgb(48, 48, 48);font-size:12px;perspective-origin:8.02557px 1.43229px;text-anchor:middle;">data_in</text></g><g id="sprotty_e$TPU/p$bufferB/r$rst" class="triangle" transform="translate(0, 65.13636302947998)"><path d="M 0,0 L 5,2.5 L 0,5 Z" transform="translate(-1.67, -2.5)" class="sprotty-port" style="fill:rgb(48, 48, 48);stroke:rgb(48, 48, 48);"/><text class="clickable sprotty-label port" id="sprotty_e$TPU/p$bufferB/r$rst/label" transform="translate(6, -8.71212100982666) translate(7.244318008422852, 13.636363983154297)" style="cursor:default;fill:rgb(48, 48, 48);font-size:12px;perspective-origin:2.73438px 1.43229px;text-anchor:middle;">rst</text></g><g id="sprotty_e$TPU/p$bufferB/r$clk" class="triangle" transform="translate(0, 37.71212100982666)"><path d="M 0,0 L 5,2.5 L 0,5 Z" transform="translate(-1.67, -2.5)" class="sprotty-port" style="fill:rgb(48, 48, 48);stroke:rgb(48, 48, 48);"/><text class="clickable sprotty-label port" id="sprotty_e$TPU/p$bufferB/r$clk/label" transform="translate(6, -8.71212100982666) translate(8.078835487365723, 13.636363983154297)" style="cursor:default;fill:rgb(48, 48, 48);font-size:12px;perspective-origin:3.05398px 1.43229px;text-anchor:middle;">clk</text></g><g id="sprotty_e$TPU/p$bufferB/r$data_out_mem" class="triangle" transform="translate(184.82196044921875, 119.98484706878662)"><path d="M 0,0 L 5,2.5 L 0,5 Z" transform="translate(-1.67, -2.5)" class="sprotty-port" style="fill:rgb(48, 48, 48);stroke:rgb(48, 48, 48);"/><text class="clickable sprotty-label port" id="sprotty_e$TPU/p$bufferB/r$data_out_mem/label" transform="translate(-92.41098022460938, -8.71212100982666) translate(43.20549011230469, 13.636363983154297)" style="cursor:default;fill:rgb(48, 48, 48);font-size:12px;perspective-origin:16.3589px 1.43229px;text-anchor:middle;">data_out_mem</text></g></g><g id="sprotty_e$TPU/p$bufferA" class="instantiation" transform="translate(469.85406494140625, 647.6515092849731)"><g class="sprotty-block" style="fill:rgb(255, 255, 255);stroke:rgb(48, 48, 48);stroke-dasharray:0px;"><rect x="0" y="0" rx="1" ry="1" width="184.82196044921875" height="219.96969413757324"/><text x="92.41098022460938" y="12" class="sprotty-block-name-openable sprotty-block-name" style="dominant-baseline:middle;fill:rgb(48, 48, 48);font-size:16px;font-weight:700;perspective-origin:65.4474px 8.19129px;stroke:rgba(0, 0, 0, 0);text-anchor:middle;">bufferA : inputCache</text><line x1="0" y1="20" x2="184.82196044921875" y2="20"/></g><g id="sprotty_e$TPU/p$bufferA/r$sel_n" class="triangle" transform="translate(0, 202.25757312774658)"><path d="M 0,0 L 5,2.5 L 0,5 Z" transform="translate(-1.67, -2.5)" class="sprotty-port" style="fill:rgb(48, 48, 48);stroke:rgb(48, 48, 48);"/><text class="clickable sprotty-label port" id="sprotty_e$TPU/p$bufferA/r$sel_n/label" transform="translate(6, -8.71212100982666) translate(15.625, 13.636363983154297)" style="cursor:default;fill:rgb(48, 48, 48);font-size:12px;perspective-origin:5.62263px 1.43229px;text-anchor:middle;">sel_n</text></g><g id="sprotty_e$TPU/p$bufferA/r$sel_a" class="triangle" transform="translate(0, 174.83333110809326)"><path d="M 0,0 L 5,2.5 L 0,5 Z" transform="translate(-1.67, -2.5)" class="sprotty-port" style="fill:rgb(48, 48, 48);stroke:rgb(48, 48, 48);"/><text class="clickable sprotty-label port" id="sprotty_e$TPU/p$bufferA/r$sel_a/label" transform="translate(6, -8.71212100982666) translate(15.340909004211426, 13.636363983154297)" style="cursor:default;fill:rgb(48, 48, 48);font-size:12px;perspective-origin:5.5161px 1.43229px;text-anchor:middle;">sel_a</text></g><g id="sprotty_e$TPU/p$bufferA/r$wr_rd" class="triangle" transform="translate(0, 147.40908908843994)"><path d="M 0,0 L 5,2.5 L 0,5 Z" transform="translate(-1.67, -2.5)" class="sprotty-port" style="fill:rgb(48, 48, 48);stroke:rgb(48, 48, 48);"/><text class="clickable sprotty-label port" id="sprotty_e$TPU/p$bufferA/r$wr_rd/label" transform="translate(6, -8.71212100982666) translate(17.234848022460938, 13.636363983154297)" style="cursor:default;fill:rgb(48, 48, 48);font-size:12px;perspective-origin:6.23816px 1.43229px;text-anchor:middle;">wr_rd</text></g><g id="sprotty_e$TPU/p$bufferA/r$mem_enable" class="triangle" transform="translate(0, 119.98484706878662)"><path d="M 0,0 L 5,2.5 L 0,5 Z" transform="translate(-1.67, -2.5)" class="sprotty-port" style="fill:rgb(48, 48, 48);stroke:rgb(48, 48, 48);"/><text class="clickable sprotty-label port" id="sprotty_e$TPU/p$bufferA/r$mem_enable/label" transform="translate(6, -8.71212100982666) translate(36.90814208984375, 13.636363983154297)" style="cursor:default;fill:rgb(48, 48, 48);font-size:12px;perspective-origin:13.9796px 1.43229px;text-anchor:middle;">mem_enable</text></g><g id="sprotty_e$TPU/p$bufferA/r$data_in" class="triangle" transform="translate(0, 92.5606050491333)"><path d="M 0,0 L 5,2.5 L 0,5 Z" transform="translate(-1.67, -2.5)" class="sprotty-port" style="fill:rgb(48, 48, 48);stroke:rgb(48, 48, 48);"/><text class="clickable sprotty-label port" id="sprotty_e$TPU/p$bufferA/r$data_in/label" transform="translate(6, -8.71212100982666) translate(21.188446044921875, 13.636363983154297)" style="cursor:default;fill:rgb(48, 48, 48);font-size:12px;perspective-origin:8.02557px 1.43229px;text-anchor:middle;">data_in</text></g><g id="sprotty_e$TPU/p$bufferA/r$rst" class="triangle" transform="translate(0, 65.13636302947998)"><path d="M 0,0 L 5,2.5 L 0,5 Z" transform="translate(-1.67, -2.5)" class="sprotty-port" style="fill:rgb(48, 48, 48);stroke:rgb(48, 48, 48);"/><text class="clickable sprotty-label port" id="sprotty_e$TPU/p$bufferA/r$rst/label" transform="translate(6, -8.71212100982666) translate(7.244318008422852, 13.636363983154297)" style="cursor:default;fill:rgb(48, 48, 48);font-size:12px;perspective-origin:2.73438px 1.43229px;text-anchor:middle;">rst</text></g><g id="sprotty_e$TPU/p$bufferA/r$clk" class="triangle" transform="translate(0, 37.71212100982666)"><path d="M 0,0 L 5,2.5 L 0,5 Z" transform="translate(-1.67, -2.5)" class="sprotty-port" style="fill:rgb(48, 48, 48);stroke:rgb(48, 48, 48);"/><text class="clickable sprotty-label port" id="sprotty_e$TPU/p$bufferA/r$clk/label" transform="translate(6, -8.71212100982666) translate(8.078835487365723, 13.636363983154297)" style="cursor:default;fill:rgb(48, 48, 48);font-size:12px;perspective-origin:3.05398px 1.43229px;text-anchor:middle;">clk</text></g><g id="sprotty_e$TPU/p$bufferA/r$data_out_mem" class="triangle" transform="translate(184.82196044921875, 119.98484706878662)"><path d="M 0,0 L 5,2.5 L 0,5 Z" transform="translate(-1.67, -2.5)" class="sprotty-port" style="fill:rgb(48, 48, 48);stroke:rgb(48, 48, 48);"/><text class="clickable sprotty-label port" id="sprotty_e$TPU/p$bufferA/r$data_out_mem/label" transform="translate(-92.41098022460938, -8.71212100982666) translate(43.20549011230469, 13.636363983154297)" style="cursor:default;fill:rgb(48, 48, 48);font-size:12px;perspective-origin:16.3589px 1.43229px;text-anchor:middle;">data_out_mem</text></g></g><g id="sprotty_e$TPU/p$controller_inst" class="instantiation" transform="translate(93.37689208984375, 348.96969413757324)"><g class="sprotty-block" style="fill:rgb(255, 255, 255);stroke:rgb(48, 48, 48);stroke-dasharray:0px;"><rect x="0" y="0" rx="1" ry="1" width="216.4771728515625" height="411.9393882751465"/><text x="108.23858642578125" y="12" class="sprotty-block-name-openable sprotty-block-name" style="dominant-baseline:middle;fill:rgb(48, 48, 48);font-size:16px;font-weight:700;perspective-origin:80.2202px 8.19129px;stroke:rgba(0, 0, 0, 0);text-anchor:middle;">controller_inst : controller</text><line x1="0" y1="20" x2="216.4771728515625" y2="20"/></g><g id="sprotty_e$TPU/p$controller_inst/r$data_in" class="triangle" transform="translate(0, 394.2272672653198)"><path d="M 0,0 L 5,2.5 L 0,5 Z" transform="translate(-1.67, -2.5)" class="sprotty-port" style="fill:rgb(48, 48, 48);stroke:rgb(48, 48, 48);"/><text class="clickable sprotty-label port" id="sprotty_e$TPU/p$controller_inst/r$data_in/label" transform="translate(6, -8.71212100982666) translate(21.188446044921875, 13.636363983154297)" style="cursor:default;fill:rgb(48, 48, 48);font-size:12px;perspective-origin:8.02557px 1.43229px;text-anchor:middle;">data_in</text></g><g id="sprotty_e$TPU/p$controller_inst/r$valid" class="triangle" transform="translate(0, 305.09848070144653)"><path d="M 0,0 L 5,2.5 L 0,5 Z" transform="translate(-1.67, -2.5)" class="sprotty-port" style="fill:rgb(48, 48, 48);stroke:rgb(48, 48, 48);"/><text class="clickable sprotty-label port" id="sprotty_e$TPU/p$controller_inst/r$valid/label" transform="translate(6, -8.71212100982666) translate(14.216382026672363, 13.636363983154297)" style="cursor:default;fill:rgb(48, 48, 48);font-size:12px;perspective-origin:5.08996px 1.43229px;text-anchor:middle;">valid</text></g><g id="sprotty_e$TPU/p$controller_inst/r$enable" class="triangle" transform="translate(0, 215.96969413757324)"><path d="M 0,0 L 5,2.5 L 0,5 Z" transform="translate(-1.67, -2.5)" class="sprotty-port" style="fill:rgb(48, 48, 48);stroke:rgb(48, 48, 48);"/><text class="clickable sprotty-label port" id="sprotty_e$TPU/p$controller_inst/r$enable/label" transform="translate(6, -8.71212100982666) translate(19.11695098876953, 13.636363983154297)" style="cursor:default;fill:rgb(48, 48, 48);font-size:12px;perspective-origin:7.23248px 1.43229px;text-anchor:middle;">enable</text></g><g id="sprotty_e$TPU/p$controller_inst/r$clk" class="triangle" transform="translate(0, 126.84090757369995)"><path d="M 0,0 L 5,2.5 L 0,5 Z" transform="translate(-1.67, -2.5)" class="sprotty-port" style="fill:rgb(48, 48, 48);stroke:rgb(48, 48, 48);"/><text class="clickable sprotty-label port" id="sprotty_e$TPU/p$controller_inst/r$clk/label" transform="translate(6, -8.71212100982666) translate(8.078835487365723, 13.636363983154297)" style="cursor:default;fill:rgb(48, 48, 48);font-size:12px;perspective-origin:3.05398px 1.43229px;text-anchor:middle;">clk</text></g><g id="sprotty_e$TPU/p$controller_inst/r$rst" class="triangle" transform="translate(0, 37.71212100982666)"><path d="M 0,0 L 5,2.5 L 0,5 Z" transform="translate(-1.67, -2.5)" class="sprotty-port" style="fill:rgb(48, 48, 48);stroke:rgb(48, 48, 48);"/><text class="clickable sprotty-label port" id="sprotty_e$TPU/p$controller_inst/r$rst/label" transform="translate(6, -8.71212100982666) translate(7.244318008422852, 13.636363983154297)" style="cursor:default;fill:rgb(48, 48, 48);font-size:12px;perspective-origin:2.73438px 1.43229px;text-anchor:middle;">rst</text></g><g id="sprotty_e$TPU/p$controller_inst/r$err" class="triangle" transform="translate(216.4771728515625, 37.71212100982666)"><path d="M 0,0 L 5,2.5 L 0,5 Z" transform="translate(-1.67, -2.5)" class="sprotty-port" style="fill:rgb(48, 48, 48);stroke:rgb(48, 48, 48);"/><text class="clickable sprotty-label port" id="sprotty_e$TPU/p$controller_inst/r$err/label" transform="translate(-23.364604949951172, -8.71212100982666) translate(7.984138011932373, 13.636363983154297)" style="cursor:default;fill:rgb(48, 48, 48);font-size:12px;perspective-origin:3.01847px 1.43229px;text-anchor:middle;">err</text></g><g id="sprotty_e$TPU/p$controller_inst/r$ready" class="triangle" transform="translate(216.4771728515625, 65.13636302947998)"><path d="M 0,0 L 5,2.5 L 0,5 Z" transform="translate(-1.67, -2.5)" class="sprotty-port" style="fill:rgb(48, 48, 48);stroke:rgb(48, 48, 48);"/><text class="clickable sprotty-label port" id="sprotty_e$TPU/p$controller_inst/r$ready/label" transform="translate(-38.00616455078125, -8.71212100982666) translate(15.725615501403809, 13.636363983154297)" style="cursor:default;fill:rgb(48, 48, 48);font-size:12px;perspective-origin:5.95407px 1.43229px;text-anchor:middle;">ready</text></g><g id="sprotty_e$TPU/p$controller_inst/r$done" class="triangle" transform="translate(216.4771728515625, 92.5606050491333)"><path d="M 0,0 L 5,2.5 L 0,5 Z" transform="translate(-1.67, -2.5)" class="sprotty-port" style="fill:rgb(48, 48, 48);stroke:rgb(48, 48, 48);"/><text class="clickable sprotty-label port" id="sprotty_e$TPU/p$controller_inst/r$done/label" transform="translate(-34.86216163635254, -8.71212100982666) translate(14.346590995788574, 13.636363983154297)" style="cursor:default;fill:rgb(48, 48, 48);font-size:12px;perspective-origin:5.43324px 1.43229px;text-anchor:middle;">done</text></g><g id="sprotty_e$TPU/p$controller_inst/r$selA_a" class="triangle" transform="translate(216.4771728515625, 119.98484706878662)"><path d="M 0,0 L 5,2.5 L 0,5 Z" transform="translate(-1.67, -2.5)" class="sprotty-port" style="fill:rgb(48, 48, 48);stroke:rgb(48, 48, 48);"/><text class="clickable sprotty-label port" id="sprotty_e$TPU/p$controller_inst/r$selA_a/label" transform="translate(-43.251731872558594, -8.71212100982666) translate(18.980823516845703, 13.636363983154297)" style="cursor:default;fill:rgb(48, 48, 48);font-size:12px;perspective-origin:6.90104px 1.43229px;text-anchor:middle;">selA_a</text></g><g id="sprotty_e$TPU/p$controller_inst/r$selA_n" class="triangle" transform="translate(216.4771728515625, 147.40908908843994)"><path d="M 0,0 L 5,2.5 L 0,5 Z" transform="translate(-1.67, -2.5)" class="sprotty-port" style="fill:rgb(48, 48, 48);stroke:rgb(48, 48, 48);"/><text class="clickable sprotty-label port" id="sprotty_e$TPU/p$controller_inst/r$selA_n/label" transform="translate(-43.772254943847656, -8.71212100982666) translate(19.264915466308594, 13.636363983154297)" style="cursor:default;fill:rgb(48, 48, 48);font-size:12px;perspective-origin:7.00758px 1.43229px;text-anchor:middle;">selA_n</text></g><g id="sprotty_e$TPU/p$controller_inst/r$wr_rd_A" class="triangle" transform="translate(216.4771728515625, 174.83333110809326)"><path d="M 0,0 L 5,2.5 L 0,5 Z" transform="translate(-1.67, -2.5)" class="sprotty-port" style="fill:rgb(48, 48, 48);stroke:rgb(48, 48, 48);"/><text class="clickable sprotty-label port" id="sprotty_e$TPU/p$controller_inst/r$wr_rd_A/label" transform="translate(-54.75088119506836, -8.71212100982666) translate(24.230587005615234, 13.636363983154297)" style="cursor:default;fill:rgb(48, 48, 48);font-size:12px;perspective-origin:8.88968px 1.43229px;text-anchor:middle;">wr_rd_A</text></g><g id="sprotty_e$TPU/p$controller_inst/r$mem_enableA" class="triangle" transform="translate(216.4771728515625, 202.25757312774658)"><path d="M 0,0 L 5,2.5 L 0,5 Z" transform="translate(-1.67, -2.5)" class="sprotty-port" style="fill:rgb(48, 48, 48);stroke:rgb(48, 48, 48);"/><text class="clickable sprotty-label port" id="sprotty_e$TPU/p$controller_inst/r$mem_enableA/label" transform="translate(-88.1452865600586, -8.71212100982666) translate(40.548057556152344, 13.636363983154297)" style="cursor:default;fill:rgb(48, 48, 48);font-size:12px;perspective-origin:15.3527px 1.43229px;text-anchor:middle;">mem_enableA</text></g><g id="sprotty_e$TPU/p$controller_inst/r$selB_a" class="triangle" transform="translate(216.4771728515625, 229.6818151473999)"><path d="M 0,0 L 5,2.5 L 0,5 Z" transform="translate(-1.67, -2.5)" class="sprotty-port" style="fill:rgb(48, 48, 48);stroke:rgb(48, 48, 48);"/><text class="clickable sprotty-label port" id="sprotty_e$TPU/p$controller_inst/r$selB_a/label" transform="translate(-43.85173797607422, -8.71212100982666) translate(19.282670974731445, 13.636363983154297)" style="cursor:default;fill:rgb(48, 48, 48);font-size:12px;perspective-origin:7.00758px 1.43229px;text-anchor:middle;">selB_a</text></g><g id="sprotty_e$TPU/p$controller_inst/r$selB_m" class="triangle" transform="translate(216.4771728515625, 257.1060571670532)"><path d="M 0,0 L 5,2.5 L 0,5 Z" transform="translate(-1.67, -2.5)" class="sprotty-port" style="fill:rgb(48, 48, 48);stroke:rgb(48, 48, 48);"/><text class="clickable sprotty-label port" id="sprotty_e$TPU/p$controller_inst/r$selB_m/label" transform="translate(-48.1519889831543, -8.71212100982666) translate(21.454782485961914, 13.636363983154297)" style="cursor:default;fill:rgb(48, 48, 48);font-size:12px;perspective-origin:7.83617px 1.43229px;text-anchor:middle;">selB_m</text></g><g id="sprotty_e$TPU/p$controller_inst/r$wr_rd_B" class="triangle" transform="translate(216.4771728515625, 284.53029918670654)"><path d="M 0,0 L 5,2.5 L 0,5 Z" transform="translate(-1.67, -2.5)" class="sprotty-port" style="fill:rgb(48, 48, 48);stroke:rgb(48, 48, 48);"/><text class="clickable sprotty-label port" id="sprotty_e$TPU/p$controller_inst/r$wr_rd_B/label" transform="translate(-54.75088119506836, -8.71212100982666) translate(24.532432556152344, 13.636363983154297)" style="cursor:default;fill:rgb(48, 48, 48);font-size:12px;perspective-origin:8.99621px 1.43229px;text-anchor:middle;">wr_rd_B</text></g><g id="sprotty_e$TPU/p$controller_inst/r$mem_enableB" class="triangle" transform="translate(216.4771728515625, 311.95454120635986)"><path d="M 0,0 L 5,2.5 L 0,5 Z" transform="translate(-1.67, -2.5)" class="sprotty-port" style="fill:rgb(48, 48, 48);stroke:rgb(48, 48, 48);"/><text class="clickable sprotty-label port" id="sprotty_e$TPU/p$controller_inst/r$mem_enableB/label" transform="translate(-88.1452865600586, -8.71212100982666) translate(40.84990310668945, 13.636363983154297)" style="cursor:default;fill:rgb(48, 48, 48);font-size:12px;perspective-origin:15.4711px 1.43229px;text-anchor:middle;">mem_enableB</text></g><g id="sprotty_e$TPU/p$controller_inst/r$send" class="triangle" transform="translate(216.4771728515625, 339.3787832260132)"><path d="M 0,0 L 5,2.5 L 0,5 Z" transform="translate(-1.67, -2.5)" class="sprotty-port" style="fill:rgb(48, 48, 48);stroke:rgb(48, 48, 48);"/><text class="clickable sprotty-label port" id="sprotty_e$TPU/p$controller_inst/r$send/label" transform="translate(-33.79356002807617, -8.71212100982666) translate(14.275568008422852, 13.636363983154297)" style="cursor:default;fill:rgb(48, 48, 48);font-size:12px;perspective-origin:5.11364px 1.43229px;text-anchor:middle;">send</text></g><g id="sprotty_e$TPU/p$controller_inst/r$selO_n" class="triangle" transform="translate(216.4771728515625, 366.8030252456665)"><path d="M 0,0 L 5,2.5 L 0,5 Z" transform="translate(-1.67, -2.5)" class="sprotty-port" style="fill:rgb(48, 48, 48);stroke:rgb(48, 48, 48);"/><text class="clickable sprotty-label port" id="sprotty_e$TPU/p$controller_inst/r$selO_n/label" transform="translate(-45.39393997192383, -8.71212100982666) translate(20.07575798034668, 13.636363983154297)" style="cursor:default;fill:rgb(48, 48, 48);font-size:12px;perspective-origin:7.31534px 1.43229px;text-anchor:middle;">selO_n</text></g><g id="sprotty_e$TPU/p$controller_inst/r$selO_m" class="triangle" transform="translate(216.4771728515625, 394.2272672653198)"><path d="M 0,0 L 5,2.5 L 0,5 Z" transform="translate(-1.67, -2.5)" class="sprotty-port" style="fill:rgb(48, 48, 48);stroke:rgb(48, 48, 48);"/><text class="clickable sprotty-label port" id="sprotty_e$TPU/p$controller_inst/r$selO_m/label" transform="translate(-49.169979095458984, -8.71212100982666) translate(21.963777542114258, 13.636363983154297)" style="cursor:default;fill:rgb(48, 48, 48);font-size:12px;perspective-origin:8.02557px 1.43229px;text-anchor:middle;">selO_m</text></g></g><g id="sprotty_e$TPU/r$data_in" class="triangle" transform="translate(0, 743.1969614028931)"><path d="M 0,0 L 5,2.5 L 0,5 Z" transform="translate(-1.67, -2.5)" class="sprotty-port" style="fill:rgb(48, 48, 48);stroke:rgb(48, 48, 48);"/><text class="clickable sprotty-label port" id="sprotty_e$TPU/r$data_in/label" transform="translate(6, 6) translate(21.188446044921875, 13.636363983154297)" style="cursor:default;fill:rgb(48, 48, 48);font-size:12px;perspective-origin:8.02557px 1.43229px;text-anchor:middle;">data_in</text></g><g id="sprotty_e$TPU/r$valid" class="triangle" transform="translate(0, 654.0681748390198)"><path d="M 0,0 L 5,2.5 L 0,5 Z" transform="translate(-1.67, -2.5)" class="sprotty-port" style="fill:rgb(48, 48, 48);stroke:rgb(48, 48, 48);"/><text class="clickable sprotty-label port" id="sprotty_e$TPU/r$valid/label" transform="translate(6, 6) translate(14.216382026672363, 13.636363983154297)" style="cursor:default;fill:rgb(48, 48, 48);font-size:12px;perspective-origin:5.08996px 1.43229px;text-anchor:middle;">valid</text></g><g id="sprotty_e$TPU/r$enable" class="triangle" transform="translate(0, 564.9393882751465)"><path d="M 0,0 L 5,2.5 L 0,5 Z" transform="translate(-1.67, -2.5)" class="sprotty-port" style="fill:rgb(48, 48, 48);stroke:rgb(48, 48, 48);"/><text class="clickable sprotty-label port" id="sprotty_e$TPU/r$enable/label" transform="translate(6, 6) translate(19.11695098876953, 13.636363983154297)" style="cursor:default;fill:rgb(48, 48, 48);font-size:12px;perspective-origin:7.23248px 1.43229px;text-anchor:middle;">enable</text></g><g id="sprotty_e$TPU/r$rst" class="triangle" transform="translate(0, 113.13636302947998)"><path d="M 0,0 L 5,2.5 L 0,5 Z" transform="translate(-1.67, -2.5)" class="sprotty-port" style="fill:rgb(48, 48, 48);stroke:rgb(48, 48, 48);"/><text class="clickable sprotty-label port" id="sprotty_e$TPU/r$rst/label" transform="translate(6, 6) translate(7.244318008422852, 13.636363983154297)" style="cursor:default;fill:rgb(48, 48, 48);font-size:12px;perspective-origin:2.73438px 1.43229px;text-anchor:middle;">rst</text></g><g id="sprotty_e$TPU/r$clk" class="triangle" transform="translate(0, 36)"><path d="M 0,0 L 5,2.5 L 0,5 Z" transform="translate(-1.67, -2.5)" class="sprotty-port" style="fill:rgb(48, 48, 48);stroke:rgb(48, 48, 48);"/><text class="clickable sprotty-label port" id="sprotty_e$TPU/r$clk/label" transform="translate(6, 6) translate(8.078835487365723, 13.636363983154297)" style="cursor:default;fill:rgb(48, 48, 48);font-size:12px;perspective-origin:3.05398px 1.43229px;text-anchor:middle;">clk</text></g><g id="sprotty_e$TPU/r$ready" class="triangle" transform="translate(1420.7679443359375, 602.2272672653198)"><path d="M 0,0 L 5,2.5 L 0,5 Z" transform="translate(-1.67, -2.5)" class="sprotty-port" style="fill:rgb(48, 48, 48);stroke:rgb(48, 48, 48);"/><text class="clickable sprotty-label port" id="sprotty_e$TPU/r$ready/label" transform="translate(-38.00616455078125, 6) translate(15.725615501403809, 13.636363983154297)" style="cursor:default;fill:rgb(48, 48, 48);font-size:12px;perspective-origin:5.95407px 1.43229px;text-anchor:middle;">ready</text></g><g id="sprotty_e$TPU/r$err" class="triangle" transform="translate(1420.7679443359375, 386.6818151473999)"><path d="M 0,0 L 5,2.5 L 0,5 Z" transform="translate(-1.67, -2.5)" class="sprotty-port" style="fill:rgb(48, 48, 48);stroke:rgb(48, 48, 48);"/><text class="clickable sprotty-label port" id="sprotty_e$TPU/r$err/label" transform="translate(-23.364604949951172, 6) translate(7.984138011932373, 13.636363983154297)" style="cursor:default;fill:rgb(48, 48, 48);font-size:12px;perspective-origin:3.01847px 1.43229px;text-anchor:middle;">err</text></g><g id="sprotty_e$TPU/r$done" class="triangle" transform="translate(1420.7679443359375, 635.6515092849731)"><path d="M 0,0 L 5,2.5 L 0,5 Z" transform="translate(-1.67, -2.5)" class="sprotty-port" style="fill:rgb(48, 48, 48);stroke:rgb(48, 48, 48);"/><text class="clickable sprotty-label port" id="sprotty_e$TPU/r$done/label" transform="translate(-34.86216163635254, 6) translate(14.346590995788574, 13.636363983154297)" style="cursor:default;fill:rgb(48, 48, 48);font-size:12px;perspective-origin:5.43324px 1.43229px;text-anchor:middle;">done</text></g><g id="sprotty_e$TPU/r$data_out" class="triangle" transform="translate(1420.7679443359375, 504.95454120635986)"><path d="M 0,0 L 5,2.5 L 0,5 Z" transform="translate(-1.67, -2.5)" class="sprotty-port" style="fill:rgb(48, 48, 48);stroke:rgb(48, 48, 48);"/><text class="clickable sprotty-label port" id="sprotty_e$TPU/r$data_out/label" transform="translate(-57.59898376464844, 6) translate(25.41429901123047, 13.636363983154297)" style="cursor:default;fill:rgb(48, 48, 48);font-size:12px;perspective-origin:9.62358px 1.43229px;text-anchor:middle;">data_out</text></g></g></g></svg>