<svg xmlns="http://www.w3.org/2000/svg" id="sprotty_root" class="sprotty-graph sprotty-state-machine statemachine" style="border-block-end-color:rgb(204, 204, 204);border-block-start-color:rgb(204, 204, 204);border-bottom-color:rgb(204, 204, 204);border-inline-end-color:rgb(204, 204, 204);border-inline-start-color:rgb(204, 204, 204);border-left-color:rgb(204, 204, 204);border-right-color:rgb(204, 204, 204);border-top-color:rgb(204, 204, 204);caret-color:rgb(204, 204, 204);color:rgb(204, 204, 204);column-rule-color:rgb(204, 204, 204);font-family:&quot;Noto Sans&quot;, Helvetica, Arial, sans-serif;font-size:13px;outline-color:rgb(204, 204, 204);perspective-origin:0px 0px;scrollbar-color:rgba(121, 121, 121, 0.4) rgb(31, 31, 31);text-decoration:none solid rgb(204, 204, 204);text-decoration-color:rgb(204, 204, 204);text-emphasis-color:rgb(204, 204, 204);transform-origin:0px 0px;-webkit-locale:&quot;en&quot;;-webkit-text-fill-color:rgb(204, 204, 204);-webkit-text-stroke-color:rgb(204, 204, 204);" version="1.1" viewBox="10 10 2451.6969772974653 1011.062791633606" width="2451.6969772974653" height="1011.062791633606"><g transform="scale(1) translate(0,0)"><g id="sprotty_fsm$current_state" class="statemachine" transform="translate(15, 15)"><g class="sprotty-block" style="fill:rgb(255, 255, 255);stroke:rgb(48, 48, 48);stroke-dasharray:0px;"><rect x="0" y="0" rx="1" ry="1" width="2441.6969772974653" height="1001.062791633606"/><text x="1220.8484886487327" y="12" class="sprotty-block-name" style="dominant-baseline:middle;fill:rgb(48, 48, 48);font-size:16px;font-weight:700;perspective-origin:482.611px 8.19129px;stroke:rgba(0, 0, 0, 0);text-anchor:middle;">current_state</text><line x1="0" y1="20" x2="2441.6969772974653" y2="20"/></g><g id="sprotty_fsm$current_state/state$IDLE" class="state" transform="translate(1195.0700642267864, 36)"><ellipse cx="45" cy="19.74242401123047" rx="45" ry="19.74242401123047" class="sprotty-node clickable" style="fill:rgb(255, 255, 255);stroke:rgb(48, 48, 48);"/><text class="clickable sprotty-label state" id="sprotty_fsm$current_state/state$IDLE/label" transform="translate(27.899765014648438, 8) translate(16.885652542114258, 18.18181800842285)" style="cursor:default;fill:rgb(48, 48, 48);font-size:16px;perspective-origin:6.39205px 2.00047px;text-anchor:middle;">IDLE</text></g><g id="sprotty_fsm$current_state/state$DIMENSIONS" class="state" transform="translate(1185.497852007548, 229.56761814753216)"><ellipse cx="54.57221221923828" cy="19.74242401123047" rx="54.57221221923828" ry="19.74242401123047" class="sprotty-node clickable" style="fill:rgb(255, 255, 255);stroke:rgb(48, 48, 48);"/><text class="clickable sprotty-label state" id="sprotty_fsm$current_state/state$DIMENSIONS/label" transform="translate(6, 8) translate(48.425662994384766, 18.18181800842285)" style="cursor:default;fill:rgb(48, 48, 48);font-size:16px;perspective-origin:18.3357px 2.00047px;text-anchor:middle;">DIMENSIONS</text></g><g id="sprotty_fsm$current_state/state$ERROR" class="state" transform="translate(1639.719424088796, 373.73938145637516)"><ellipse cx="32.10301971435547" cy="19.74242401123047" rx="32.10301971435547" ry="19.74242401123047" class="sprotty-node clickable" style="fill:rgb(255, 255, 255);stroke:rgb(48, 48, 48);"/><text class="clickable sprotty-label state" id="sprotty_fsm$current_state/state$ERROR/label" transform="translate(6, 8) translate(25.881864547729492, 18.18181800842285)" style="cursor:default;fill:rgb(48, 48, 48);font-size:16px;perspective-origin:9.80114px 2.00047px;text-anchor:middle;">ERROR</text></g><g id="sprotty_fsm$current_state/state$LOAD" class="state" transform="translate(617.3688604036967, 373.73938145637516)"><ellipse cx="26.306581497192383" cy="19.74242401123047" rx="26.306581497192383" ry="19.74242401123047" class="sprotty-node clickable" style="fill:rgb(255, 255, 255);stroke:rgb(48, 48, 48);"/><text class="clickable sprotty-label state" id="sprotty_fsm$current_state/state$LOAD/label" transform="translate(6, 8) translate(20.306581497192383, 18.18181800842285)" style="cursor:default;fill:rgb(48, 48, 48);font-size:16px;perspective-origin:7.68229px 2.00047px;text-anchor:middle;">LOAD</text></g><g id="sprotty_fsm$current_state/state$PAUSE" class="state" transform="translate(554.8159693082171, 603.1023579279582)"><ellipse cx="30.708232879638672" cy="19.74242401123047" rx="30.708232879638672" ry="19.74242401123047" class="sprotty-node clickable" style="fill:rgb(255, 255, 255);stroke:rgb(48, 48, 48);"/><text class="clickable sprotty-label state" id="sprotty_fsm$current_state/state$PAUSE/label" transform="translate(6, 8) translate(24.491003036499023, 18.18181800842285)" style="cursor:default;fill:rgb(48, 48, 48);font-size:16px;perspective-origin:9.26847px 2.00047px;text-anchor:middle;">PAUSE</text></g><g id="sprotty_fsm$current_state/state$PROCESS" class="state" transform="translate(1760.13298813502, 526.3186699708303)"><ellipse cx="41.46022415161133" cy="19.74242401123047" rx="41.46022415161133" ry="19.74242401123047" class="sprotty-node clickable" style="fill:rgb(255, 255, 255);stroke:rgb(48, 48, 48);"/><text class="clickable sprotty-label state" id="sprotty_fsm$current_state/state$PROCESS/label" transform="translate(6, 8) translate(35.3160514831543, 18.18181800842285)" style="cursor:default;fill:rgb(48, 48, 48);font-size:16px;perspective-origin:13.3759px 2.00047px;text-anchor:middle;">PROCESS</text></g><g id="sprotty_fsm$current_state/state$SEND" class="state" transform="translate(2079.4388767878218, 672.1555318355561)"><ellipse cx="26.756391525268555" cy="19.74242401123047" rx="26.756391525268555" ry="19.74242401123047" class="sprotty-node clickable" style="fill:rgb(255, 255, 255);stroke:rgb(48, 48, 48);"/><text class="clickable sprotty-label state" id="sprotty_fsm$current_state/state$SEND/label" transform="translate(6, 8) translate(20.756391525268555, 18.18181800842285)" style="cursor:default;fill:rgb(48, 48, 48);font-size:16px;perspective-origin:7.85985px 2.00047px;text-anchor:middle;">SEND</text></g><g id="sprotty_fsm$current_state/state$WAIT" class="state" transform="translate(2030.6650938987732, 949.5779436111451)"><ellipse cx="25.905813217163086" cy="19.74242401123047" rx="25.905813217163086" ry="19.74242401123047" class="sprotty-node clickable" style="fill:rgb(255, 255, 255);stroke:rgb(48, 48, 48);"/><text class="clickable sprotty-label state" id="sprotty_fsm$current_state/state$WAIT/label" transform="translate(6, 8) translate(19.773910522460938, 18.18181800842285)" style="cursor:default;fill:rgb(48, 48, 48);font-size:16px;perspective-origin:7.19697px 2.00047px;text-anchor:middle;">WAIT</text></g><g id="sprotty_fsm$current_state/state$IDLE_to_fsm$current_state/state$DIMENSIONS" class="sprotty-edge transition" style="fill:none;stroke:rgb(48, 48, 48);stroke-linejoin:round;"><g><path d=" M1245.0700642267864,75.48484802246094 C1258.260801633199,130.78380907376607 1258.260801633199,158.43328959941863 1258.260801633199,175.0484338641167 C1258.260801633199,191.66357812881472 1258.2608016331988,197.2443861325582 1258.2608016331985,204.22039613723751 C1258.2608016331988,211.1964061419169 1258.260801633199,219.56761814753216 1258.2608016331992,229.56761814753216"/><path d=" M1245.0700642267864,75.48484802246094 C1258.260801633199,130.78380907376607 1258.260801633199,158.43328959941863 1258.260801633199,175.0484338641167 C1258.260801633199,191.66357812881472 1258.2608016331988,197.2443861325582 1258.2608016331985,204.22039613723751 C1258.2608016331988,211.1964061419169 1258.260801633199,219.56761814753216 1258.2608016331992,229.56761814753216" class="clickable"/></g><path d="M 1258.2608016331992,229.56761814753216 L 1265.2608016331992,227.06761814753216 L 1265.2608016331992,232.06761814753216 Z" transform="rotate(-90.00000000000131 1258.2608016331992 229.56761814753216)" class="arrow" style="fill:rgb(48, 48, 48);stroke-linejoin:miter;stroke-miterlimit:2;"/></g><g id="sprotty_fsm$current_state/state$DIMENSIONS_to_fsm$current_state/state$IDLE" class="sprotty-edge transition" style="fill:none;stroke:rgb(48, 48, 48);stroke-linejoin:round;"><g><path d=" M1221.8793268203735,229.56761814753216 C1221.8793268203735,219.56761814753216 1221.8793268203735,211.1964061419169 1221.8793268203735,204.22039613723751 C1221.8793268203735,197.2443861325582 1221.8793268203735,191.66357812881472 1221.8793268203735,175.0484338641167 C1221.8793268203735,158.43328959941863 1221.8793268203735,130.78380907376607 1235.0700642267864,75.48484802246094"/><path d=" M1221.8793268203735,229.56761814753216 C1221.8793268203735,219.56761814753216 1221.8793268203735,211.1964061419169 1221.8793268203735,204.22039613723751 C1221.8793268203735,197.2443861325582 1221.8793268203735,191.66357812881472 1221.8793268203735,175.0484338641167 C1221.8793268203735,158.43328959941863 1221.8793268203735,130.78380907376607 1235.0700642267864,75.48484802246094" class="clickable"/></g><path d="M 1235.0700642267864,75.48484802246094 L 1242.0700642267864,72.98484802246094 L 1242.0700642267864,77.98484802246094 Z" transform="rotate(103.41633988470113 1235.0700642267864 75.48484802246094)" class="arrow" style="fill:rgb(48, 48, 48);stroke-linejoin:miter;stroke-miterlimit:2;"/><text class="clickable sprotty-label transition" id="sprotty_fsm$current_state/state$DIMENSIONS_to_fsm$current_state/state$IDLE/label0" transform="translate(1134.78848361969, 186.08277012507122) translate(40.435604095458984, 18.18181800842285)" style="cursor:default;fill:rgb(48, 48, 48);font-size:16px;perspective-origin:15.3054px 2.00047px;stroke:none;text-anchor:middle;">Reset state</text></g><g id="sprotty_fsm$current_state/state$DIMENSIONS_to_fsm$current_state/state$ERROR" class="sprotty-edge transition" style="fill:none;stroke:rgb(48, 48, 48);stroke-linejoin:round;"><g><path d=" M1258.2608016331992,269.05246616999307 C1597.586284796397,287.9110757907232 1597.586284796397,297.3403806010882 1597.586284796397,305.96917434334756 C1597.586284796397,314.5979680856069 1597.586284796397,322.4262507597606 1597.586284796397,330.2545334339142 C1597.586284796397,338.08281610806785 1597.586284796397,345.91109878222153 1597.586284796397,352.3252401192983 C1597.586284796397,358.73938145637516 1597.586284796397,363.73938145637516 1661.1214372316995,373.73938145637516"/><path d=" M1258.2608016331992,269.05246616999307 C1597.586284796397,287.9110757907232 1597.586284796397,297.3403806010882 1597.586284796397,305.96917434334756 C1597.586284796397,314.5979680856069 1597.586284796397,322.4262507597606 1597.586284796397,330.2545334339142 C1597.586284796397,338.08281610806785 1597.586284796397,345.91109878222153 1597.586284796397,352.3252401192983 C1597.586284796397,358.73938145637516 1597.586284796397,363.73938145637516 1661.1214372316995,373.73938145637516" class="clickable"/></g><path d="M 1661.1214372316995,373.73938145637516 L 1668.1214372316995,371.23938145637516 L 1668.1214372316995,376.23938145637516 Z" transform="rotate(-171.05541335093116 1661.1214372316995 373.73938145637516)" class="arrow" style="fill:rgb(48, 48, 48);stroke-linejoin:miter;stroke-miterlimit:2;"/><text class="clickable sprotty-label transition" id="sprotty_fsm$current_state/state$DIMENSIONS_to_fsm$current_state/state$ERROR/label0" transform="translate(895.707134405772, 318.51210942268375) translate(347.9284973144531, 18.18181800842285)" style="cursor:default;fill:rgb(48, 48, 48);font-size:16px;perspective-origin:131.499px 2.00047px;stroke:none;text-anchor:middle;">Transition to ERROR state when there's error in matrix sizes like bigger than hardware support</text></g><g id="sprotty_fsm$current_state/state$DIMENSIONS_to_fsm$current_state/state$LOAD" class="sprotty-edge transition" style="fill:none;stroke:rgb(48, 48, 48);stroke-linejoin:round;"><g><path d=" M1221.8793268203735,269.05246616999307 C844.7071344057719,287.9110757907232 844.7071344057719,297.3403806010882 844.7071344057717,305.96917434334756 C844.7071344057717,314.5979680856069 844.7071344057717,322.4262507597606 844.7071344057717,330.2545334339142 C844.7071344057717,338.08281610806785 844.7071344057717,345.91109878222153 844.7071344057717,352.3252401192983 C844.7071344057719,358.73938145637516 844.7071344057719,363.73938145637516 652.4443023999531,373.73938145637516"/><path d=" M1221.8793268203735,269.05246616999307 C844.7071344057719,287.9110757907232 844.7071344057719,297.3403806010882 844.7071344057717,305.96917434334756 C844.7071344057717,314.5979680856069 844.7071344057717,322.4262507597606 844.7071344057717,330.2545334339142 C844.7071344057717,338.08281610806785 844.7071344057717,345.91109878222153 844.7071344057717,352.3252401192983 C844.7071344057719,358.73938145637516 844.7071344057719,363.73938145637516 652.4443023999531,373.73938145637516" class="clickable"/></g><path d="M 652.4443023999531,373.73938145637516 L 659.4443023999531,371.23938145637516 L 659.4443023999531,376.23938145637516 Z" transform="rotate(-2.9773927658954977 652.4443023999531 373.73938145637516)" class="arrow" style="fill:rgb(48, 48, 48);stroke-linejoin:miter;stroke-miterlimit:2;"/><text class="clickable sprotty-label transition" id="sprotty_fsm$current_state/state$DIMENSIONS_to_fsm$current_state/state$LOAD/label0" transform="translate(453.6437493960062, 318.51210942268375) translate(192.6077117919922, 18.18181800842285)" style="cursor:default;fill:rgb(48, 48, 48);font-size:16px;perspective-origin:72.6681px 2.00047px;stroke:none;text-anchor:middle;">transition to LOAD state after one cycle and no error</text></g><g id="sprotty_fsm$current_state/state$ERROR_to_fsm$current_state/state$IDLE" class="sprotty-edge transition" style="fill:none;stroke:rgb(48, 48, 48);stroke-linejoin:round;"><g><path d=" M1682.5234503746033,373.73938145637516 C1677.3224438031514,363.73938145637516 1677.3224438031514,358.7393814563751 1677.3224438031514,350.7536893175708 C1677.3224438031514,342.76799717876645 1677.3224438031514,331.7966129011578 1677.3224438031514,320.82522862354915 C1677.3224438031514,309.8538443459405 1677.3224438031514,298.88246006833185 1677.3224438031514,282.0061916556623 C1677.3224438031514,265.12992324299285 1677.3224438031514,242.3487706952625 1677.3224438031514,228.16779041952555 C1677.3224438031514,213.98681014378863 1677.3224438031514,208.40600214004516 1677.3224438031514,202.8251941363017 C1677.3224438031514,197.2443861325582 1677.3224438031514,191.66357812881472 1677.3224438031514,175.04843386411665 C1677.3224438031514,158.43328959941863 1677.3224438031514,130.78380907376607 1255.0700642267864,75.48484802246094"/><path d=" M1682.5234503746033,373.73938145637516 C1677.3224438031514,363.73938145637516 1677.3224438031514,358.7393814563751 1677.3224438031514,350.7536893175708 C1677.3224438031514,342.76799717876645 1677.3224438031514,331.7966129011578 1677.3224438031514,320.82522862354915 C1677.3224438031514,309.8538443459405 1677.3224438031514,298.88246006833185 1677.3224438031514,282.0061916556623 C1677.3224438031514,265.12992324299285 1677.3224438031514,242.3487706952625 1677.3224438031514,228.16779041952555 C1677.3224438031514,213.98681014378863 1677.3224438031514,208.40600214004516 1677.3224438031514,202.8251941363017 C1677.3224438031514,197.2443861325582 1677.3224438031514,191.66357812881472 1677.3224438031514,175.04843386411665 C1677.3224438031514,158.43328959941863 1677.3224438031514,130.78380907376607 1255.0700642267864,75.48484802246094" class="clickable"/></g><path d="M 1255.0700642267864,75.48484802246094 L 1262.0700642267864,72.98484802246094 L 1262.0700642267864,77.98484802246094 Z" transform="rotate(7.461100616388326 1255.0700642267864 75.48484802246094)" class="arrow" style="fill:rgb(48, 48, 48);stroke-linejoin:miter;stroke-miterlimit:2;"/><text class="clickable sprotty-label transition" id="sprotty_fsm$current_state/state$ERROR_to_fsm$current_state/state$IDLE/label0" transform="translate(1590.2316006024678, 237.56761814753216) translate(40.435604095458984, 18.18181800842285)" style="cursor:default;fill:rgb(48, 48, 48);font-size:16px;perspective-origin:15.3054px 2.00047px;stroke:none;text-anchor:middle;">Reset state</text></g><g id="sprotty_fsm$current_state/state$LOAD_to_fsm$current_state/state$IDLE" class="sprotty-edge transition" style="fill:none;stroke:rgb(48, 48, 48);stroke-linejoin:round;"><g><path d=" M634.906581401825,373.73938145637516 C442.6437493960062,363.73938145637516 442.6437493960062,358.7393814563751 442.6437493960063,350.7536893175708 C442.6437493960063,342.76799717876645 442.6437493960063,331.7966129011578 442.6437493960063,320.82522862354915 C442.6437493960063,309.8538443459405 442.6437493960063,298.88246006833185 442.6437493960063,282.0061916556623 C442.6437493960062,265.12992324299285 442.64374939600617,242.3487706952625 442.6437493960062,228.16779041952555 C442.6437493960063,213.98681014378863 442.6437493960063,208.40600214004516 442.6437493960063,202.8251941363017 C442.6437493960063,197.2443861325582 442.6437493960063,191.66357812881472 442.6437493960063,175.04843386411665 C442.6437493960062,158.43328959941863 442.6437493960062,130.78380907376607 1225.0700642267864,75.48484802246094"/><path d=" M634.906581401825,373.73938145637516 C442.6437493960062,363.73938145637516 442.6437493960062,358.7393814563751 442.6437493960063,350.7536893175708 C442.6437493960063,342.76799717876645 442.6437493960063,331.7966129011578 442.6437493960063,320.82522862354915 C442.6437493960063,309.8538443459405 442.6437493960063,298.88246006833185 442.6437493960063,282.0061916556623 C442.6437493960062,265.12992324299285 442.64374939600617,242.3487706952625 442.6437493960062,228.16779041952555 C442.6437493960063,213.98681014378863 442.6437493960063,208.40600214004516 442.6437493960063,202.8251941363017 C442.6437493960063,197.2443861325582 442.6437493960063,191.66357812881472 442.6437493960063,175.04843386411665 C442.6437493960062,158.43328959941863 442.6437493960062,130.78380907376607 1225.0700642267864,75.48484802246094" class="clickable"/></g><path d="M 1225.0700642267864,75.48484802246094 L 1232.0700642267864,72.98484802246094 L 1232.0700642267864,77.98484802246094 Z" transform="rotate(175.9572713069437 1225.0700642267864 75.48484802246094)" class="arrow" style="fill:rgb(48, 48, 48);stroke-linejoin:miter;stroke-miterlimit:2;"/><text class="clickable sprotty-label transition" id="sprotty_fsm$current_state/state$LOAD_to_fsm$current_state/state$IDLE/label0" transform="translate(355.55290619532263, 237.56761814753216) translate(40.435604095458984, 18.18181800842285)" style="cursor:default;fill:rgb(48, 48, 48);font-size:16px;perspective-origin:15.3054px 2.00047px;stroke:none;text-anchor:middle;">Reset state</text></g><g id="sprotty_fsm$current_state/state$LOAD_to_fsm$current_state/state$PAUSE" class="sprotty-edge transition" style="fill:none;stroke:rgb(48, 48, 48);stroke-linejoin:round;"><g><path d=" M643.675441900889,413.2242294788361 C662.598796526591,469.77144972483325 662.598796526591,498.0450598478318 662.5987965265908,515.4722689112028 C662.5987965265908,532.8994779745738 662.5987965265908,539.4802859783173 662.5987965265908,546.0610939820608 C662.5987965265908,552.6419019858042 662.5987965265908,559.2227099895478 662.5987965265908,567.1754689832528 C662.598796526591,575.128227976958 662.598796526591,584.4529379606247 600.8783186276751,603.1023579279582"/><path d=" M643.675441900889,413.2242294788361 C662.598796526591,469.77144972483325 662.598796526591,498.0450598478318 662.5987965265908,515.4722689112028 C662.5987965265908,532.8994779745738 662.5987965265908,539.4802859783173 662.5987965265908,546.0610939820608 C662.5987965265908,552.6419019858042 662.5987965265908,559.2227099895478 662.5987965265908,567.1754689832528 C662.598796526591,575.128227976958 662.598796526591,584.4529379606247 600.8783186276751,603.1023579279582" class="clickable"/></g><path d="M 600.8783186276751,603.1023579279582 L 607.8783186276751,600.6023579279582 L 607.8783186276751,605.6023579279582 Z" transform="rotate(-16.81268317186869 600.8783186276751 603.1023579279582)" class="arrow" style="fill:rgb(48, 48, 48);stroke-linejoin:miter;stroke-miterlimit:2;"/><text class="clickable sprotty-label transition" id="sprotty_fsm$current_state/state$LOAD_to_fsm$current_state/state$PAUSE/label0" transform="translate(669.598796526591, 534.3186699708303) translate(204.26727294921875, 18.18181800842285)" style="cursor:default;fill:rgb(48, 48, 48);font-size:16px;perspective-origin:77.0833px 2.00047px;stroke:none;text-anchor:middle;">Transition to PAUSE state if either enable or valid is low</text></g><g id="sprotty_fsm$current_state/state$LOAD_to_fsm$current_state/state$PROCESS" class="sprotty-edge transition" style="fill:none;stroke:rgb(48, 48, 48);stroke-linejoin:round;"><g><path d=" M656.8287326494852,413.2242294788361 C656.8287326494852,413.2242294788361 1674.6786970774333,469.77144972483325 1787.7731375694275,526.3186699708303"/><path d=" M656.8287326494852,413.2242294788361 C656.8287326494852,413.2242294788361 1674.6786970774333,469.77144972483325 1787.7731375694275,526.3186699708303" class="clickable"/></g><path d="M 1787.7731375694275,526.3186699708303 L 1794.7731375694275,523.8186699708303 L 1794.7731375694275,528.8186699708303 Z" transform="rotate(-153.43494882292202 1787.7731375694275 526.3186699708303)" class="arrow" style="fill:rgb(48, 48, 48);stroke-linejoin:miter;stroke-miterlimit:2;"/></g><g id="sprotty_fsm$current_state/state$PAUSE_to_fsm$current_state/state$IDLE" class="sprotty-edge transition" style="fill:none;stroke:rgb(48, 48, 48);stroke-linejoin:round;"><g><path d=" M570.1700857480364,603.1023579279582 C197.1816864013672,584.4529379606247 197.1816864013672,575.1282279769579 197.1816864013672,562.4632006294198 C197.1816864013672,549.7981732818816 197.1816864013672,533.792828570472 197.1816864013672,517.7874838590623 C197.1816864013672,501.7821391476526 197.1816864013672,485.7767944362429 197.1816864013672,460.10211070246163 C197.1816864013672,434.4274269686805 197.1816864013672,399.08340421252785 197.1816864013672,375.09236736231384 C197.1816864013672,351.1013305120998 197.1816864013672,338.4632795678245 197.1816864013672,325.82522862354915 C197.1816864013672,313.1871776792739 197.1816864013672,300.54912673499854 197.1816864013672,282.8395249889957 C197.1816864013672,265.1299232429929 197.1816864013672,242.34877069526252 197.1816864013672,228.16779041952563 C197.1816864013672,213.9868101437887 197.1816864013672,208.4060021400452 197.1816864013672,202.82519413630166 C197.1816864013672,197.2443861325582 197.1816864013672,191.66357812881472 197.1816864013672,175.0484338641167 C197.1816864013672,158.43328959941866 197.1816864013672,130.78380907376607 1215.0700642267864,75.48484802246094"/><path d=" M570.1700857480364,603.1023579279582 C197.1816864013672,584.4529379606247 197.1816864013672,575.1282279769579 197.1816864013672,562.4632006294198 C197.1816864013672,549.7981732818816 197.1816864013672,533.792828570472 197.1816864013672,517.7874838590623 C197.1816864013672,501.7821391476526 197.1816864013672,485.7767944362429 197.1816864013672,460.10211070246163 C197.1816864013672,434.4274269686805 197.1816864013672,399.08340421252785 197.1816864013672,375.09236736231384 C197.1816864013672,351.1013305120998 197.1816864013672,338.4632795678245 197.1816864013672,325.82522862354915 C197.1816864013672,313.1871776792739 197.1816864013672,300.54912673499854 197.1816864013672,282.8395249889957 C197.1816864013672,265.1299232429929 197.1816864013672,242.34877069526252 197.1816864013672,228.16779041952563 C197.1816864013672,213.9868101437887 197.1816864013672,208.4060021400452 197.1816864013672,202.82519413630166 C197.1816864013672,197.2443861325582 197.1816864013672,191.66357812881472 197.1816864013672,175.0484338641167 C197.1816864013672,158.43328959941866 197.1816864013672,130.78380907376607 1215.0700642267864,75.48484802246094" class="clickable"/></g><path d="M 1215.0700642267864,75.48484802246094 L 1222.0700642267864,72.98484802246094 L 1222.0700642267864,77.98484802246094 Z" transform="rotate(176.8903412711406 1215.0700642267864 75.48484802246094)" class="arrow" style="fill:rgb(48, 48, 48);stroke-linejoin:miter;stroke-miterlimit:2;"/><text class="clickable sprotty-label transition" id="sprotty_fsm$current_state/state$PAUSE_to_fsm$current_state/state$IDLE/label0" transform="translate(110.0908432006836, 318.51210942268375) translate(40.435604095458984, 18.18181800842285)" style="cursor:default;fill:rgb(48, 48, 48);font-size:16px;perspective-origin:15.3054px 2.00047px;stroke:none;text-anchor:middle;">Reset state</text></g><g id="sprotty_fsm$current_state/state$PAUSE_to_fsm$current_state/state$LOAD" class="sprotty-edge transition" style="fill:none;stroke:rgb(48, 48, 48);stroke-linejoin:round;"><g><path d=" M585.5242021878557,603.1023579279582 C611.598796526591,584.4529379606247 611.598796526591,575.128227976958 611.5987965265908,567.1754689832528 C611.5987965265908,559.2227099895478 611.5987965265908,552.6419019858042 611.5987965265908,546.0610939820608 C611.5987965265908,539.4802859783173 611.5987965265908,532.8994779745738 611.5987965265908,515.4722689112028 C611.598796526591,498.0450598478318 611.598796526591,469.77144972483325 630.5221511522928,413.2242294788361"/><path d=" M585.5242021878557,603.1023579279582 C611.598796526591,584.4529379606247 611.598796526591,575.128227976958 611.5987965265908,567.1754689832528 C611.5987965265908,559.2227099895478 611.5987965265908,552.6419019858042 611.5987965265908,546.0610939820608 C611.5987965265908,539.4802859783173 611.5987965265908,532.8994779745738 611.5987965265908,515.4722689112028 C611.598796526591,498.0450598478318 611.598796526591,469.77144972483325 630.5221511522928,413.2242294788361" class="clickable"/></g><path d="M 630.5221511522928,413.2242294788361 L 637.5221511522928,410.7242294788361 L 637.5221511522928,415.7242294788361 Z" transform="rotate(108.50266018276922 630.5221511522928 413.2242294788361)" class="arrow" style="fill:rgb(48, 48, 48);stroke-linejoin:miter;stroke-miterlimit:2;"/><text class="clickable sprotty-label transition" id="sprotty_fsm$current_state/state$PAUSE_to_fsm$current_state/state$LOAD/label0" transform="translate(234.14994398752845, 534.3186699708303) translate(185.72442626953125, 18.18181800842285)" style="cursor:default;fill:rgb(48, 48, 48);font-size:16px;perspective-origin:70.348px 2.00047px;stroke:none;text-anchor:middle;">if enable and valid are back to high return to LOAD</text></g><g id="sprotty_fsm$current_state/state$PROCESS_to_fsm$current_state/state$IDLE" class="sprotty-edge transition" style="fill:none;stroke:rgb(48, 48, 48);stroke-linejoin:round;"><g><path d=" M1815.4132870038352,526.3186699708303 C1815.413287003835,469.77144972483325 1815.413287003835,416.7554155906042 1815.4132870038347,383.92837305135197 C1815.4132870038347,351.10133051209976 1815.4132870038347,338.4632795678245 1815.4132870038347,325.8252286235491 C1815.413287003835,313.1871776792738 1815.4132870038352,300.54912673499854 1815.4132870038352,282.83952498899566 C1815.413287003835,265.12992324299285 1815.4132870038347,242.3487706952625 1815.413287003835,228.16779041952555 C1815.413287003835,213.98681014378863 1815.4132870038352,208.40600214004516 1815.413287003835,202.8251941363017 C1815.413287003835,197.2443861325582 1815.4132870038352,191.66357812881472 1815.413287003835,175.04843386411665 C1815.413287003835,158.43328959941863 1815.413287003835,130.78380907376607 1265.0700642267864,75.48484802246094"/><path d=" M1815.4132870038352,526.3186699708303 C1815.413287003835,469.77144972483325 1815.413287003835,416.7554155906042 1815.4132870038347,383.92837305135197 C1815.4132870038347,351.10133051209976 1815.4132870038347,338.4632795678245 1815.4132870038347,325.8252286235491 C1815.413287003835,313.1871776792738 1815.4132870038352,300.54912673499854 1815.4132870038352,282.83952498899566 C1815.413287003835,265.12992324299285 1815.4132870038347,242.3487706952625 1815.413287003835,228.16779041952555 C1815.413287003835,213.98681014378863 1815.4132870038352,208.40600214004516 1815.413287003835,202.8251941363017 C1815.413287003835,197.2443861325582 1815.4132870038352,191.66357812881472 1815.413287003835,175.04843386411665 C1815.413287003835,158.43328959941863 1815.413287003835,130.78380907376607 1265.0700642267864,75.48484802246094" class="clickable"/></g><path d="M 1265.0700642267864,75.48484802246094 L 1272.0700642267864,72.98484802246094 L 1272.0700642267864,77.98484802246094 Z" transform="rotate(5.737870376067617 1265.0700642267864 75.48484802246094)" class="arrow" style="fill:rgb(48, 48, 48);stroke-linejoin:miter;stroke-miterlimit:2;"/><text class="clickable sprotty-label transition" id="sprotty_fsm$current_state/state$PROCESS_to_fsm$current_state/state$IDLE/label0" transform="translate(1728.3224438031514, 237.56761814753216) translate(40.435604095458984, 18.18181800842285)" style="cursor:default;fill:rgb(48, 48, 48);font-size:16px;perspective-origin:15.3054px 2.00047px;stroke:none;text-anchor:middle;">Reset state</text></g><g id="sprotty_fsm$current_state/state$PROCESS_to_fsm$current_state/state$SEND" class="sprotty-edge transition" style="fill:none;stroke:rgb(48, 48, 48);stroke-linejoin:round;"><g><path d=" M1801.5932122866313,565.8035179932913 C1801.5932122866313,584.4529379606247 1801.5932122866311,598.9865049580733 1801.5932122866311,611.0978107892804 C1801.5932122866313,623.2091166204876 1801.593212286631,632.8981612854534 1801.593212286631,641.4387243535783 C1801.593212286631,649.9792874217034 1801.5932122866313,657.3713688929877 2097.276471138001,672.1555318355561"/><path d=" M1801.5932122866313,565.8035179932913 C1801.5932122866313,584.4529379606247 1801.5932122866311,598.9865049580733 1801.5932122866311,611.0978107892804 C1801.5932122866313,623.2091166204876 1801.593212286631,632.8981612854534 1801.593212286631,641.4387243535783 C1801.593212286631,649.9792874217034 1801.5932122866313,657.3713688929877 2097.276471138001,672.1555318355561" class="clickable"/></g><path d="M 2097.276471138001,672.1555318355561 L 2104.276471138001,669.6555318355561 L 2104.276471138001,674.6555318355561 Z" transform="rotate(-177.13759477388828 2097.276471138001 672.1555318355561)" class="arrow" style="fill:rgb(48, 48, 48);stroke-linejoin:miter;stroke-miterlimit:2;"/><text class="clickable sprotty-label transition" id="sprotty_fsm$current_state/state$PROCESS_to_fsm$current_state/state$SEND/label0" transform="translate(1101.2172967592876, 611.1023579279582) translate(347.45501708984375, 18.18181800842285)" style="cursor:default;fill:rgb(48, 48, 48);font-size:16px;perspective-origin:131.321px 2.00047px;stroke:none;text-anchor:middle;">Transition to SEND state when subcounter_full is high indicating processing finished in last pe</text></g><g id="sprotty_fsm$current_state/state$SEND_to_fsm$current_state/state$IDLE" class="sprotty-edge transition" style="fill:none;stroke:rgb(48, 48, 48);stroke-linejoin:round;"><g><path d=" M2115.1140654881797,672.1555318355561 C2362.548601945241,657.3713688929877 2362.548601945241,649.9792874217034 2362.548601945241,636.5942020210955 C2362.548601945241,623.2091166204876 2362.548601945241,603.8310272905561 2362.548601945241,584.5851919392745 C2362.548601945241,565.3393565879928 2362.548601945241,546.225775215361 2362.548601945241,527.112193842729 C2362.548601945241,507.99861247009704 2362.548601945241,488.8850310974652 2362.548601945241,461.65622903307286 C2362.548601945241,434.4274269686805 2362.548601945241,399.0834042125278 2362.548601945241,375.0923673623138 C2362.548601945241,351.1013305120998 2362.548601945241,338.4632795678245 2362.548601945241,325.8252286235492 C2362.548601945241,313.1871776792739 2362.548601945241,300.54912673499854 2362.548601945241,282.8395249889957 C2362.548601945241,265.1299232429929 2362.548601945241,242.34877069526252 2362.548601945241,228.16779041952557 C2362.548601945241,213.98681014378866 2362.548601945241,208.4060021400452 2362.548601945241,202.8251941363017 C2362.548601945241,197.2443861325582 2362.548601945241,191.66357812881472 2362.548601945241,175.04843386411667 C2362.548601945241,158.43328959941863 2362.548601945241,130.78380907376607 1275.0700642267864,75.48484802246094"/><path d=" M2115.1140654881797,672.1555318355561 C2362.548601945241,657.3713688929877 2362.548601945241,649.9792874217034 2362.548601945241,636.5942020210955 C2362.548601945241,623.2091166204876 2362.548601945241,603.8310272905561 2362.548601945241,584.5851919392745 C2362.548601945241,565.3393565879928 2362.548601945241,546.225775215361 2362.548601945241,527.112193842729 C2362.548601945241,507.99861247009704 2362.548601945241,488.8850310974652 2362.548601945241,461.65622903307286 C2362.548601945241,434.4274269686805 2362.548601945241,399.0834042125278 2362.548601945241,375.0923673623138 C2362.548601945241,351.1013305120998 2362.548601945241,338.4632795678245 2362.548601945241,325.8252286235492 C2362.548601945241,313.1871776792739 2362.548601945241,300.54912673499854 2362.548601945241,282.8395249889957 C2362.548601945241,265.1299232429929 2362.548601945241,242.34877069526252 2362.548601945241,228.16779041952557 C2362.548601945241,213.98681014378866 2362.548601945241,208.4060021400452 2362.548601945241,202.8251941363017 C2362.548601945241,197.2443861325582 2362.548601945241,191.66357812881472 2362.548601945241,175.04843386411667 C2362.548601945241,158.43328959941863 2362.548601945241,130.78380907376607 1275.0700642267864,75.48484802246094" class="clickable"/></g><path d="M 1275.0700642267864,75.48484802246094 L 1282.0700642267864,72.98484802246094 L 1282.0700642267864,77.98484802246094 Z" transform="rotate(2.911018716176384 1275.0700642267864 75.48484802246094)" class="arrow" style="fill:rgb(48, 48, 48);stroke-linejoin:miter;stroke-miterlimit:2;"/><text class="clickable sprotty-label transition" id="sprotty_fsm$current_state/state$SEND_to_fsm$current_state/state$IDLE/label0" transform="translate(2275.4577587445574, 306.7696854114533) translate(40.435604095458984, 18.18181800842285)" style="cursor:default;fill:rgb(48, 48, 48);font-size:16px;perspective-origin:15.3054px 2.00047px;stroke:none;text-anchor:middle;">Reset state</text><text class="clickable sprotty-label transition" id="sprotty_fsm$current_state/state$SEND_to_fsm$current_state/state$IDLE/label1" transform="translate(1826.413287003835, 330.2545334339142) translate(265.05682373046875, 18.18181800842285)" style="cursor:default;fill:rgb(48, 48, 48);font-size:16px;perspective-origin:100.107px 2.00047px;stroke:none;text-anchor:middle;">Transition to IDLE state when counter_full is high indicating data is sent</text></g><g id="sprotty_fsm$current_state/state$SEND_to_fsm$current_state/state$WAIT" class="sprotty-edge transition" style="fill:none;stroke:rgb(48, 48, 48);stroke-linejoin:round;"><g><path d=" M2115.1140654881797,711.640379858017 C2131.6952683130903,721.640379858017 2131.6952683130903,726.640379858017 2131.6952683130903,731.0974505265555 C2131.6952683130903,735.5545211950939 2131.6952683130903,739.4686625321707 2131.6952683130903,743.3828038692475 C2131.6952683130903,747.2969452063244 2131.6952683130903,751.2110865434012 2131.6952683130903,777.4747466782729 C2131.6952683130903,803.7384068131447 2131.6952683130903,852.3515857458115 2069.523813724518,949.5779436111451"/><path d=" M2115.1140654881797,711.640379858017 C2131.6952683130903,721.640379858017 2131.6952683130903,726.640379858017 2131.6952683130903,731.0974505265555 C2131.6952683130903,735.5545211950939 2131.6952683130903,739.4686625321707 2131.6952683130903,743.3828038692475 C2131.6952683130903,747.2969452063244 2131.6952683130903,751.2110865434012 2131.6952683130903,777.4747466782729 C2131.6952683130903,803.7384068131447 2131.6952683130903,852.3515857458115 2069.523813724518,949.5779436111451" class="clickable"/></g><path d="M 2069.523813724518,949.5779436111451 L 2076.523813724518,947.0779436111451 L 2076.523813724518,952.0779436111451 Z" transform="rotate(-57.40309315332698 2069.523813724518 949.5779436111451)" class="arrow" style="fill:rgb(48, 48, 48);stroke-linejoin:miter;stroke-miterlimit:2;"/><text class="clickable sprotty-label transition" id="sprotty_fsm$current_state/state$SEND_to_fsm$current_state/state$WAIT/label0" transform="translate(2138.6952683130903, 731.640379858017) translate(145.4782257080078, 18.18181800842285)" style="cursor:default;fill:rgb(48, 48, 48);font-size:16px;perspective-origin:54.8177px 2.00047px;stroke:none;text-anchor:middle;">Transition to WAIT state if enable is low</text></g><g id="sprotty_fsm$current_state/state$WAIT_to_fsm$current_state/state$IDLE" class="sprotty-edge transition" style="fill:none;stroke:rgb(48, 48, 48);stroke-linejoin:round;"><g><path d=" M2043.6180005073547,949.5779436111451 C99.0908432006836,852.3515857458115 99.0908432006836,803.7384068131447 99.0908432006836,773.8510093430679 C99.0908432006836,743.963611872991 99.0908432006836,732.801995865504 99.0908432006836,721.865436948008 C99.0908432006836,710.9288780305121 99.0908432006836,700.2173762030072 99.0908432006836,689.5058743755025 C99.0908432006836,678.7943725479975 99.0908432006836,668.0828707204926 99.0908432006836,650.5740479846796 C99.0908432006836,633.0652252488667 99.0908432006836,608.7590816047457 99.0908432006836,587.0492190963691 C99.0908432006836,565.3393565879927 99.0908432006836,546.2257752153608 99.0908432006836,527.1121938427289 C99.0908432006836,507.99861247009704 99.0908432006836,488.8850310974651 99.0908432006836,461.65622903307286 C99.0908432006836,434.42742696868055 99.0908432006836,399.08340421252785 99.0908432006836,375.0923673623138 C99.0908432006836,351.10133051209976 99.0908432006836,338.4632795678245 99.0908432006836,325.8252286235491 C99.0908432006836,313.1871776792738 99.0908432006836,300.54912673499854 99.0908432006836,282.83952498899566 C99.0908432006836,265.12992324299285 99.0908432006836,242.3487706952625 99.0908432006836,228.16779041952555 C99.0908432006836,213.98681014378863 99.0908432006836,208.40600214004516 99.0908432006836,202.8251941363017 C99.0908432006836,197.2443861325582 99.0908432006836,191.66357812881472 99.0908432006836,175.04843386411665 C99.0908432006836,158.43328959941863 99.0908432006836,130.78380907376607 1205.0700642267864,75.48484802246094"/><path d=" M2043.6180005073547,949.5779436111451 C99.0908432006836,852.3515857458115 99.0908432006836,803.7384068131447 99.0908432006836,773.8510093430679 C99.0908432006836,743.963611872991 99.0908432006836,732.801995865504 99.0908432006836,721.865436948008 C99.0908432006836,710.9288780305121 99.0908432006836,700.2173762030072 99.0908432006836,689.5058743755025 C99.0908432006836,678.7943725479975 99.0908432006836,668.0828707204926 99.0908432006836,650.5740479846796 C99.0908432006836,633.0652252488667 99.0908432006836,608.7590816047457 99.0908432006836,587.0492190963691 C99.0908432006836,565.3393565879927 99.0908432006836,546.2257752153608 99.0908432006836,527.1121938427289 C99.0908432006836,507.99861247009704 99.0908432006836,488.8850310974651 99.0908432006836,461.65622903307286 C99.0908432006836,434.42742696868055 99.0908432006836,399.08340421252785 99.0908432006836,375.0923673623138 C99.0908432006836,351.10133051209976 99.0908432006836,338.4632795678245 99.0908432006836,325.8252286235491 C99.0908432006836,313.1871776792738 99.0908432006836,300.54912673499854 99.0908432006836,282.83952498899566 C99.0908432006836,265.12992324299285 99.0908432006836,242.3487706952625 99.0908432006836,228.16779041952555 C99.0908432006836,213.98681014378863 99.0908432006836,208.40600214004516 99.0908432006836,202.8251941363017 C99.0908432006836,197.2443861325582 99.0908432006836,191.66357812881472 99.0908432006836,175.04843386411665 C99.0908432006836,158.43328959941863 99.0908432006836,130.78380907376607 1205.0700642267864,75.48484802246094" class="clickable"/></g><path d="M 1205.0700642267864,75.48484802246094 L 1212.0700642267864,72.98484802246094 L 1212.0700642267864,77.98484802246094 Z" transform="rotate(177.13759477388828 1205.0700642267864 75.48484802246094)" class="arrow" style="fill:rgb(48, 48, 48);stroke-linejoin:miter;stroke-miterlimit:2;"/><text class="clickable sprotty-label transition" id="sprotty_fsm$current_state/state$WAIT_to_fsm$current_state/state$IDLE/label0" transform="translate(12, 381.73938145637516) translate(40.435604095458984, 18.18181800842285)" style="cursor:default;fill:rgb(48, 48, 48);font-size:16px;perspective-origin:15.3054px 2.00047px;stroke:none;text-anchor:middle;">Reset state</text></g><g id="sprotty_fsm$current_state/state$WAIT_to_fsm$current_state/state$SEND" class="sprotty-edge transition" style="fill:none;stroke:rgb(48, 48, 48);stroke-linejoin:round;"><g><path d=" M2056.5709071159363,949.5779436111451 C2080.6952683130903,852.3515857458115 2080.6952683130903,803.7384068131447 2080.6952683130903,777.4747466782729 C2080.6952683130903,751.2110865434012 2080.6952683130903,747.2969452063244 2080.6952683130903,743.3828038692475 C2080.6952683130903,739.4686625321707 2080.6952683130903,735.5545211950939 2080.6952683130903,731.0974505265555 C2080.6952683130903,726.640379858017 2080.6952683130903,721.640379858017 2097.276471138001,711.640379858017"/><path d=" M2056.5709071159363,949.5779436111451 C2080.6952683130903,852.3515857458115 2080.6952683130903,803.7384068131447 2080.6952683130903,777.4747466782729 C2080.6952683130903,751.2110865434012 2080.6952683130903,747.2969452063244 2080.6952683130903,743.3828038692475 C2080.6952683130903,739.4686625321707 2080.6952683130903,735.5545211950939 2080.6952683130903,731.0974505265555 C2080.6952683130903,726.640379858017 2080.6952683130903,721.640379858017 2097.276471138001,711.640379858017" class="clickable"/></g><path d="M 2097.276471138001,711.640379858017 L 2104.276471138001,709.140379858017 L 2104.276471138001,714.140379858017 Z" transform="rotate(148.90613412730556 2097.276471138001 711.640379858017)" class="arrow" style="fill:rgb(48, 48, 48);stroke-linejoin:miter;stroke-miterlimit:2;"/><text class="clickable sprotty-label transition" id="sprotty_fsm$current_state/state$WAIT_to_fsm$current_state/state$SEND/label0" transform="translate(1743.497483889262, 731.640379858017) translate(165.91500854492188, 18.18181800842285)" style="cursor:default;fill:rgb(48, 48, 48);font-size:16px;perspective-origin:62.5592px 2.00047px;stroke:none;text-anchor:middle;">Transition to SEND state when enable is high</text></g></g></g></svg>