<svg xmlns="http://www.w3.org/2000/svg" id="sprotty_root" class="sprotty-graph sprotty-state-machine statemachine" style="border-block-end-color:rgb(204, 204, 204);border-block-start-color:rgb(204, 204, 204);border-bottom-color:rgb(204, 204, 204);border-inline-end-color:rgb(204, 204, 204);border-inline-start-color:rgb(204, 204, 204);border-left-color:rgb(204, 204, 204);border-right-color:rgb(204, 204, 204);border-top-color:rgb(204, 204, 204);caret-color:rgb(204, 204, 204);color:rgb(204, 204, 204);column-rule-color:rgb(204, 204, 204);font-family:&quot;Noto Sans&quot;, Helvetica, Arial, sans-serif;font-size:13px;outline-color:rgb(204, 204, 204);perspective-origin:0px 0px;scrollbar-color:rgba(121, 121, 121, 0.4) rgb(31, 31, 31);text-decoration:none solid rgb(204, 204, 204);text-decoration-color:rgb(204, 204, 204);text-emphasis-color:rgb(204, 204, 204);transform-origin:0px 0px;-webkit-locale:&quot;en&quot;;-webkit-text-fill-color:rgb(204, 204, 204);-webkit-text-stroke-color:rgb(204, 204, 204);" version="1.1" viewBox="10 10 391.6440717379252 424.9090881347656" width="391.6440717379252" height="424.9090881347656"><g transform="scale(1) translate(0,0)"><g id="sprotty_fsm$current_state" class="statemachine" transform="translate(15, 15)"><g class="sprotty-block" style="fill:rgb(255, 255, 255);stroke:rgb(48, 48, 48);stroke-dasharray:0px;"><rect x="0" y="0" rx="1" ry="1" width="381.6440717379252" height="414.9090881347656"/><text x="190.8220358689626" y="12" class="sprotty-block-name" style="dominant-baseline:middle;fill:rgb(48, 48, 48);font-size:16px;font-weight:700;perspective-origin:92.4479px 8.19129px;stroke:rgba(0, 0, 0, 0);text-anchor:middle;">current_state</text><line x1="0" y1="20" x2="381.6440717379252" y2="20"/></g><g id="sprotty_fsm$current_state/state$IDLE" class="state" transform="translate(128.04410362243652, 36)"><ellipse cx="45" cy="19.74242401123047" rx="45" ry="19.74242401123047" class="sprotty-node clickable" style="fill:rgb(255, 255, 255);stroke:rgb(48, 48, 48);"/><text class="clickable sprotty-label state" id="sprotty_fsm$current_state/state$IDLE/label" transform="translate(27.899765014648438, 8) translate(16.885652542114258, 18.18181800842285)" style="cursor:default;fill:rgb(48, 48, 48);font-size:16px;perspective-origin:6.39205px 2.00047px;text-anchor:middle;">IDLE</text></g><g id="sprotty_fsm$current_state/state$DIMENSIONS" class="state" transform="translate(74.78939882914224, 125.48484802246094)"><ellipse cx="54.57221221923828" cy="19.74242401123047" rx="54.57221221923828" ry="19.74242401123047" class="sprotty-node clickable" style="fill:rgb(255, 255, 255);stroke:rgb(48, 48, 48);"/><text class="clickable sprotty-label state" id="sprotty_fsm$current_state/state$DIMENSIONS/label" transform="translate(6, 8) translate(48.425662994384766, 18.18181800842285)" style="cursor:default;fill:rgb(48, 48, 48);font-size:16px;perspective-origin:18.3357px 2.00047px;text-anchor:middle;">DIMENSIONS</text></g><g id="sprotty_fsm$current_state/state$ERROR" class="state" transform="translate(54.58771769205728, 184.96969604492188)"><ellipse cx="32.10301971435547" cy="19.74242401123047" rx="32.10301971435547" ry="19.74242401123047" class="sprotty-node clickable" style="fill:rgb(255, 255, 255);stroke:rgb(48, 48, 48);"/><text class="clickable sprotty-label state" id="sprotty_fsm$current_state/state$ERROR/label" transform="translate(6, 8) translate(25.881864547729492, 18.18181800842285)" style="cursor:default;fill:rgb(48, 48, 48);font-size:16px;perspective-origin:9.80114px 2.00047px;text-anchor:middle;">ERROR</text></g><g id="sprotty_fsm$current_state/state$LOAD" class="state" transform="translate(144.43650436401367, 184.96969604492188)"><ellipse cx="26.306581497192383" cy="19.74242401123047" rx="26.306581497192383" ry="19.74242401123047" class="sprotty-node clickable" style="fill:rgb(255, 255, 255);stroke:rgb(48, 48, 48);"/><text class="clickable sprotty-label state" id="sprotty_fsm$current_state/state$LOAD/label" transform="translate(6, 8) translate(20.306581497192383, 18.18181800842285)" style="cursor:default;fill:rgb(48, 48, 48);font-size:16px;perspective-origin:7.68229px 2.00047px;text-anchor:middle;">LOAD</text></g><g id="sprotty_fsm$current_state/state$PAUSE" class="state" transform="translate(118.97085380554199, 244.4545440673828)"><ellipse cx="30.708232879638672" cy="19.74242401123047" rx="30.708232879638672" ry="19.74242401123047" class="sprotty-node clickable" style="fill:rgb(255, 255, 255);stroke:rgb(48, 48, 48);"/><text class="clickable sprotty-label state" id="sprotty_fsm$current_state/state$PAUSE/label" transform="translate(6, 8) translate(24.491003036499023, 18.18181800842285)" style="cursor:default;fill:rgb(48, 48, 48);font-size:16px;perspective-origin:9.26847px 2.00047px;text-anchor:middle;">PAUSE</text></g><g id="sprotty_fsm$current_state/state$PROCESS" class="state" transform="translate(211.3637728691101, 244.4545440673828)"><ellipse cx="41.46022415161133" cy="19.74242401123047" rx="41.46022415161133" ry="19.74242401123047" class="sprotty-node clickable" style="fill:rgb(255, 255, 255);stroke:rgb(48, 48, 48);"/><text class="clickable sprotty-label state" id="sprotty_fsm$current_state/state$PROCESS/label" transform="translate(6, 8) translate(35.3160514831543, 18.18181800842285)" style="cursor:default;fill:rgb(48, 48, 48);font-size:16px;perspective-origin:13.3759px 2.00047px;text-anchor:middle;">PROCESS</text></g><g id="sprotty_fsm$current_state/state$SEND" class="state" transform="translate(258.93544467290246, 303.93939208984375)"><ellipse cx="26.756391525268555" cy="19.74242401123047" rx="26.756391525268555" ry="19.74242401123047" class="sprotty-node clickable" style="fill:rgb(255, 255, 255);stroke:rgb(48, 48, 48);"/><text class="clickable sprotty-label state" id="sprotty_fsm$current_state/state$SEND/label" transform="translate(6, 8) translate(20.756391525268555, 18.18181800842285)" style="cursor:default;fill:rgb(48, 48, 48);font-size:16px;perspective-origin:7.85985px 2.00047px;text-anchor:middle;">SEND</text></g><g id="sprotty_fsm$current_state/state$WAIT" class="state" transform="translate(265.80467446645105, 363.4242401123047)"><ellipse cx="25.905813217163086" cy="19.74242401123047" rx="25.905813217163086" ry="19.74242401123047" class="sprotty-node clickable" style="fill:rgb(255, 255, 255);stroke:rgb(48, 48, 48);"/><text class="clickable sprotty-label state" id="sprotty_fsm$current_state/state$WAIT/label" transform="translate(6, 8) translate(19.773910522460938, 18.18181800842285)" style="cursor:default;fill:rgb(48, 48, 48);font-size:16px;perspective-origin:7.19697px 2.00047px;text-anchor:middle;">WAIT</text></g><g id="sprotty_fsm$current_state/state$IDLE_to_fsm$current_state/state$DIMENSIONS" class="sprotty-edge transition" style="fill:none;stroke:rgb(48, 48, 48);stroke-linejoin:round;"><g><path d=" M168.04410362243652,75.48484802246094 C168.04410362243652,75.48484802246094 149.60152397155758,100.48484802246094 147.55234845479328,125.48484802246094"/><path d=" M168.04410362243652,75.48484802246094 C168.04410362243652,75.48484802246094 149.60152397155758,100.48484802246094 147.55234845479328,125.48484802246094" class="clickable"/></g><path d="M 147.55234845479328,125.48484802246094 L 154.55234845479328,122.98484802246094 L 154.55234845479328,127.98484802246094 Z" transform="rotate(-85.31411111315013 147.55234845479328 125.48484802246094)" class="arrow" style="fill:rgb(48, 48, 48);stroke-linejoin:miter;stroke-miterlimit:2;"/></g><g id="sprotty_fsm$current_state/state$DIMENSIONS_to_fsm$current_state/state$IDLE" class="sprotty-edge transition" style="fill:none;stroke:rgb(48, 48, 48);stroke-linejoin:round;"><g><path d=" M111.17087364196777,125.48484802246094 C115.85819664001465,100.48484802246094 158.04410362243652,75.48484802246094 158.04410362243652,75.48484802246094"/><path d=" M111.17087364196777,125.48484802246094 C115.85819664001465,100.48484802246094 158.04410362243652,75.48484802246094 158.04410362243652,75.48484802246094" class="clickable"/></g><path d="M 158.04410362243652,75.48484802246094 L 165.04410362243652,72.98484802246094 L 165.04410362243652,77.98484802246094 Z" transform="rotate(149.34838314596863 158.04410362243652 75.48484802246094)" class="arrow" style="fill:rgb(48, 48, 48);stroke-linejoin:miter;stroke-miterlimit:2;"/></g><g id="sprotty_fsm$current_state/state$DIMENSIONS_to_fsm$current_state/state$ERROR" class="sprotty-edge transition" style="fill:none;stroke:rgb(48, 48, 48);stroke-linejoin:round;"><g><path d=" M111.17087364196777,164.96969604492188 C111.17087364196777,164.96969604492188 104.28130880991617,174.96969604492188 97.39174397786458,184.96969604492188"/><path d=" M111.17087364196777,164.96969604492188 C111.17087364196777,164.96969604492188 104.28130880991617,174.96969604492188 97.39174397786458,184.96969604492188" class="clickable"/></g><path d="M 97.39174397786458,184.96969604492188 L 104.39174397786458,182.46969604492188 L 104.39174397786458,187.46969604492188 Z" transform="rotate(-55.43484899071864 97.39174397786458 184.96969604492188)" class="arrow" style="fill:rgb(48, 48, 48);stroke-linejoin:miter;stroke-miterlimit:2;"/></g><g id="sprotty_fsm$current_state/state$DIMENSIONS_to_fsm$current_state/state$LOAD" class="sprotty-edge transition" style="fill:none;stroke:rgb(48, 48, 48);stroke-linejoin:round;"><g><path d=" M147.55234845479328,164.96969604492188 C147.55234845479328,164.96969604492188 154.76328690846762,174.96969604492188 161.97422536214194,184.96969604492188"/><path d=" M147.55234845479328,164.96969604492188 C147.55234845479328,164.96969604492188 154.76328690846762,174.96969604492188 161.97422536214194,184.96969604492188" class="clickable"/></g><path d="M 161.97422536214194,184.96969604492188 L 168.97422536214194,182.46969604492188 L 168.97422536214194,187.46969604492188 Z" transform="rotate(-125.79514135199261 161.97422536214194 184.96969604492188)" class="arrow" style="fill:rgb(48, 48, 48);stroke-linejoin:miter;stroke-miterlimit:2;"/></g><g id="sprotty_fsm$current_state/state$ERROR_to_fsm$current_state/state$IDLE" class="sprotty-edge transition" style="fill:none;stroke:rgb(48, 48, 48);stroke-linejoin:round;"><g><path d=" M75.98973083496094,184.96969604492188 C63,174.96969604492188 63,169.96969604492188 63,164.1792920430501 C63,158.38888804117838 63,151.80808003743488 63,145.2272720336914 C63,138.6464640299479 63,132.0656560262044 63,122.52525202433267 C63,112.98484802246094 63,100.48484802246094 148.04410362243652,75.48484802246094"/><path d=" M75.98973083496094,184.96969604492188 C63,174.96969604492188 63,169.96969604492188 63,164.1792920430501 C63,158.38888804117838 63,151.80808003743488 63,145.2272720336914 C63,138.6464640299479 63,132.0656560262044 63,122.52525202433267 C63,112.98484802246094 63,100.48484802246094 148.04410362243652,75.48484802246094" class="clickable"/></g><path d="M 148.04410362243652,75.48484802246094 L 155.04410362243652,72.98484802246094 L 155.04410362243652,77.98484802246094 Z" transform="rotate(163.61850344057547 148.04410362243652 75.48484802246094)" class="arrow" style="fill:rgb(48, 48, 48);stroke-linejoin:miter;stroke-miterlimit:2;"/></g><g id="sprotty_fsm$current_state/state$LOAD_to_fsm$current_state/state$IDLE" class="sprotty-edge transition" style="fill:none;stroke:rgb(48, 48, 48);stroke-linejoin:round;"><g><path d=" M179.51194636027017,184.96969604492188 C193.9338232676188,174.96969604492188 193.9338232676188,169.96969604492188 193.9338232676188,164.1792920430501 C193.9338232676188,158.38888804117838 193.9338232676188,151.80808003743488 193.9338232676188,145.2272720336914 C193.9338232676188,138.6464640299479 193.9338232676188,132.0656560262044 193.9338232676188,122.52525202433267 C193.9338232676188,112.98484802246094 193.9338232676188,100.48484802246094 178.04410362243652,75.48484802246094"/><path d=" M179.51194636027017,184.96969604492188 C193.9338232676188,174.96969604492188 193.9338232676188,169.96969604492188 193.9338232676188,164.1792920430501 C193.9338232676188,158.38888804117838 193.9338232676188,151.80808003743488 193.9338232676188,145.2272720336914 C193.9338232676188,138.6464640299479 193.9338232676188,132.0656560262044 193.9338232676188,122.52525202433267 C193.9338232676188,112.98484802246094 193.9338232676188,100.48484802246094 178.04410362243652,75.48484802246094" class="clickable"/></g><path d="M 178.04410362243652,75.48484802246094 L 185.04410362243652,72.98484802246094 L 185.04410362243652,77.98484802246094 Z" transform="rotate(57.56041806857439 178.04410362243652 75.48484802246094)" class="arrow" style="fill:rgb(48, 48, 48);stroke-linejoin:miter;stroke-miterlimit:2;"/></g><g id="sprotty_fsm$current_state/state$LOAD_to_fsm$current_state/state$PAUSE" class="sprotty-edge transition" style="fill:none;stroke:rgb(48, 48, 48);stroke-linejoin:round;"><g><path d=" M170.74308586120605,224.4545440673828 C170.74308586120605,224.4545440673828 167.88814449310303,234.4545440673828 165.033203125,244.4545440673828"/><path d=" M170.74308586120605,224.4545440673828 C170.74308586120605,224.4545440673828 167.88814449310303,234.4545440673828 165.033203125,244.4545440673828" class="clickable"/></g><path d="M 165.033203125,244.4545440673828 L 172.033203125,241.9545440673828 L 172.033203125,246.9545440673828 Z" transform="rotate(-74.06626641012932 165.033203125 244.4545440673828)" class="arrow" style="fill:rgb(48, 48, 48);stroke-linejoin:miter;stroke-miterlimit:2;"/></g><g id="sprotty_fsm$current_state/state$LOAD_to_fsm$current_state/state$PROCESS" class="sprotty-edge transition" style="fill:none;stroke:rgb(48, 48, 48);stroke-linejoin:round;"><g><path d=" M183.89637660980225,224.4545440673828 C183.89637660980225,224.4545440673828 233.4931677341461,234.4545440673828 239.00392230351767,244.4545440673828"/><path d=" M183.89637660980225,224.4545440673828 C183.89637660980225,224.4545440673828 233.4931677341461,234.4545440673828 239.00392230351767,244.4545440673828" class="clickable"/></g><path d="M 239.00392230351767,244.4545440673828 L 246.00392230351767,241.9545440673828 L 246.00392230351767,246.9545440673828 Z" transform="rotate(-118.85808062151878 239.00392230351767 244.4545440673828)" class="arrow" style="fill:rgb(48, 48, 48);stroke-linejoin:miter;stroke-miterlimit:2;"/></g><g id="sprotty_fsm$current_state/state$PAUSE_to_fsm$current_state/state$IDLE" class="sprotty-edge transition" style="fill:none;stroke:rgb(48, 48, 48);stroke-linejoin:round;"><g><path d=" M134.32497024536133,244.4545440673828 C12,234.4545440673828 12,229.45454406738284 12,218.7070693969727 C12,207.95959472656253 12,191.4646453857422 12,179.09343338012695 C12,166.72222137451172 12.000000000000002,158.47474670410156 12.000000000000002,150.22727203369138 C12,141.97979736328125 12,133.7323226928711 12,123.35858535766603 C12,112.98484802246094 12,100.48484802246094 138.04410362243652,75.48484802246094"/><path d=" M134.32497024536133,244.4545440673828 C12,234.4545440673828 12,229.45454406738284 12,218.7070693969727 C12,207.95959472656253 12,191.4646453857422 12,179.09343338012695 C12,166.72222137451172 12.000000000000002,158.47474670410156 12.000000000000002,150.22727203369138 C12,141.97979736328125 12,133.7323226928711 12,123.35858535766603 C12,112.98484802246094 12,100.48484802246094 138.04410362243652,75.48484802246094" class="clickable"/></g><path d="M 138.04410362243652,75.48484802246094 L 145.04410362243652,72.98484802246094 L 145.04410362243652,77.98484802246094 Z" transform="rotate(168.78136912391605 138.04410362243652 75.48484802246094)" class="arrow" style="fill:rgb(48, 48, 48);stroke-linejoin:miter;stroke-miterlimit:2;"/></g><g id="sprotty_fsm$current_state/state$PAUSE_to_fsm$current_state/state$LOAD" class="sprotty-edge transition" style="fill:none;stroke:rgb(48, 48, 48);stroke-linejoin:round;"><g><path d=" M149.67908668518066,244.4545440673828 C153.63444089889526,234.4545440673828 157.58979511260986,224.4545440673828 157.58979511260986,224.4545440673828"/><path d=" M149.67908668518066,244.4545440673828 C153.63444089889526,234.4545440673828 157.58979511260986,224.4545440673828 157.58979511260986,224.4545440673828" class="clickable"/></g><path d="M 157.58979511260986,224.4545440673828 L 164.58979511260986,221.9545440673828 L 164.58979511260986,226.9545440673828 Z" transform="rotate(111.58055202085801 157.58979511260986 224.4545440673828)" class="arrow" style="fill:rgb(48, 48, 48);stroke-linejoin:miter;stroke-miterlimit:2;"/></g><g id="sprotty_fsm$current_state/state$PROCESS_to_fsm$current_state/state$IDLE" class="sprotty-edge transition" style="fill:none;stroke:rgb(48, 48, 48);stroke-linejoin:round;"><g><path d=" M266.6440717379252,244.4545440673828 C266.6440717379252,234.4545440673828 266.6440717379252,204.71212005615234 266.6440717379252,185.71717071533203 C266.6440717379252,166.72222137451172 266.6440717379252,158.47474670410156 266.6440717379252,150.2272720336914 C266.6440717379252,141.97979736328125 266.6440717379252,133.7323226928711 266.6440717379252,123.35858535766602 C266.6440717379252,112.98484802246094 266.6440717379252,100.48484802246094 188.04410362243652,75.48484802246094"/><path d=" M266.6440717379252,244.4545440673828 C266.6440717379252,234.4545440673828 266.6440717379252,204.71212005615234 266.6440717379252,185.71717071533203 C266.6440717379252,166.72222137451172 266.6440717379252,158.47474670410156 266.6440717379252,150.2272720336914 C266.6440717379252,141.97979736328125 266.6440717379252,133.7323226928711 266.6440717379252,123.35858535766602 C266.6440717379252,112.98484802246094 266.6440717379252,100.48484802246094 188.04410362243652,75.48484802246094" class="clickable"/></g><path d="M 188.04410362243652,75.48484802246094 L 195.04410362243652,72.98484802246094 L 195.04410362243652,77.98484802246094 Z" transform="rotate(17.644113101275757 188.04410362243652 75.48484802246094)" class="arrow" style="fill:rgb(48, 48, 48);stroke-linejoin:miter;stroke-miterlimit:2;"/></g><g id="sprotty_fsm$current_state/state$PROCESS_to_fsm$current_state/state$SEND" class="sprotty-edge transition" style="fill:none;stroke:rgb(48, 48, 48);stroke-linejoin:round;"><g><path d=" M252.82399702072144,283.93939208984375 C252.82399702072144,283.93939208984375 255.21890122095743,293.93939208984375 276.7730390230815,303.93939208984375"/><path d=" M252.82399702072144,283.93939208984375 C252.82399702072144,283.93939208984375 255.21890122095743,293.93939208984375 276.7730390230815,303.93939208984375" class="clickable"/></g><path d="M 276.7730390230815,303.93939208984375 L 283.7730390230815,301.43939208984375 L 283.7730390230815,306.43939208984375 Z" transform="rotate(-155.11114957767393 276.7730390230815 303.93939208984375)" class="arrow" style="fill:rgb(48, 48, 48);stroke-linejoin:miter;stroke-miterlimit:2;"/></g><g id="sprotty_fsm$current_state/state$SEND_to_fsm$current_state/state$IDLE" class="sprotty-edge transition" style="fill:none;stroke:rgb(48, 48, 48);stroke-linejoin:round;"><g><path d=" M294.6106333732605,303.93939208984375 C317.6440717379252,293.93939208984375 317.6440717379252,288.93939208984375 317.6440717379252,282.3156547546387 C317.6440717379252,275.6919174194336 317.6440717379252,267.44444274902344 317.6440717379252,259.1969680786133 C317.6440717379252,250.94949340820312 317.6440717379252,242.70201873779297 317.6440717379252,228.6641400655111 C317.6440717379252,214.62626139322919 317.6440717379252,194.79797871907553 317.6440717379252,180.7601000467936 C317.6440717379252,166.72222137451172 317.6440717379252,158.47474670410156 317.6440717379252,150.2272720336914 C317.6440717379252,141.97979736328125 317.6440717379252,133.7323226928711 317.6440717379252,123.35858535766602 C317.6440717379252,112.98484802246092 317.6440717379252,100.48484802246094 198.04410362243652,75.48484802246094"/><path d=" M294.6106333732605,303.93939208984375 C317.6440717379252,293.93939208984375 317.6440717379252,288.93939208984375 317.6440717379252,282.3156547546387 C317.6440717379252,275.6919174194336 317.6440717379252,267.44444274902344 317.6440717379252,259.1969680786133 C317.6440717379252,250.94949340820312 317.6440717379252,242.70201873779297 317.6440717379252,228.6641400655111 C317.6440717379252,214.62626139322919 317.6440717379252,194.79797871907553 317.6440717379252,180.7601000467936 C317.6440717379252,166.72222137451172 317.6440717379252,158.47474670410156 317.6440717379252,150.2272720336914 C317.6440717379252,141.97979736328125 317.6440717379252,133.7323226928711 317.6440717379252,123.35858535766602 C317.6440717379252,112.98484802246092 317.6440717379252,100.48484802246094 198.04410362243652,75.48484802246094" class="clickable"/></g><path d="M 198.04410362243652,75.48484802246094 L 205.04410362243652,72.98484802246094 L 205.04410362243652,77.98484802246094 Z" transform="rotate(11.806547830835436 198.04410362243652 75.48484802246094)" class="arrow" style="fill:rgb(48, 48, 48);stroke-linejoin:miter;stroke-miterlimit:2;"/></g><g id="sprotty_fsm$current_state/state$SEND_to_fsm$current_state/state$WAIT" class="sprotty-edge transition" style="fill:none;stroke:rgb(48, 48, 48);stroke-linejoin:round;"><g><path d=" M294.6106333732605,343.4242401123047 C294.6106333732605,343.4242401123047 294.3206188042959,353.4242401123047 291.71048768361413,363.4242401123047"/><path d=" M294.6106333732605,343.4242401123047 C294.6106333732605,343.4242401123047 294.3206188042959,353.4242401123047 291.71048768361413,363.4242401123047" class="clickable"/></g><path d="M 291.71048768361413,363.4242401123047 L 298.71048768361413,360.9242401123047 L 298.71048768361413,365.9242401123047 Z" transform="rotate(-75.37142569982204 291.71048768361413 363.4242401123047)" class="arrow" style="fill:rgb(48, 48, 48);stroke-linejoin:miter;stroke-miterlimit:2;"/></g><g id="sprotty_fsm$current_state/state$WAIT_to_fsm$current_state/state$IDLE" class="sprotty-edge transition" style="fill:none;stroke:rgb(48, 48, 48);stroke-linejoin:round;"><g><path d=" M304.6633942921957,363.4242401123047 C368.6440717379252,353.4242401123047 368.6440717379252,348.4242401123047 368.6440717379252,337.67676544189453 C368.6440717379252,326.9292907714844 368.6440717379252,310.43434143066406 368.6440717379252,297.22979609171546 C368.6440717379252,284.0252507527669 368.6440717379252,274.11110941569007 368.6440717379252,264.1969680786133 C368.6440717379252,254.28282674153644 368.6440717379252,244.36868540445963 368.6440717379252,229.4974733988444 C368.6440717379252,214.62626139322916 368.6440717379252,194.7979787190755 368.6440717379252,180.7601000467936 C368.6440717379252,166.72222137451172 368.6440717379252,158.47474670410156 368.6440717379252,150.2272720336914 C368.6440717379252,141.97979736328125 368.6440717379252,133.7323226928711 368.6440717379252,123.35858535766602 C368.6440717379252,112.98484802246094 368.6440717379252,100.48484802246094 208.04410362243652,75.48484802246094"/><path d=" M304.6633942921957,363.4242401123047 C368.6440717379252,353.4242401123047 368.6440717379252,348.4242401123047 368.6440717379252,337.67676544189453 C368.6440717379252,326.9292907714844 368.6440717379252,310.43434143066406 368.6440717379252,297.22979609171546 C368.6440717379252,284.0252507527669 368.6440717379252,274.11110941569007 368.6440717379252,264.1969680786133 C368.6440717379252,254.28282674153644 368.6440717379252,244.36868540445963 368.6440717379252,229.4974733988444 C368.6440717379252,214.62626139322916 368.6440717379252,194.7979787190755 368.6440717379252,180.7601000467936 C368.6440717379252,166.72222137451172 368.6440717379252,158.47474670410156 368.6440717379252,150.2272720336914 C368.6440717379252,141.97979736328125 368.6440717379252,133.7323226928711 368.6440717379252,123.35858535766602 C368.6440717379252,112.98484802246094 368.6440717379252,100.48484802246094 208.04410362243652,75.48484802246094" class="clickable"/></g><path d="M 208.04410362243652,75.48484802246094 L 215.04410362243652,72.98484802246094 L 215.04410362243652,77.98484802246094 Z" transform="rotate(8.848008753687326 208.04410362243652 75.48484802246094)" class="arrow" style="fill:rgb(48, 48, 48);stroke-linejoin:miter;stroke-miterlimit:2;"/></g><g id="sprotty_fsm$current_state/state$WAIT_to_fsm$current_state/state$SEND" class="sprotty-edge transition" style="fill:none;stroke:rgb(48, 48, 48);stroke-linejoin:round;"><g><path d=" M278.7575810750326,363.4242401123047 C276.9714932282766,353.4242401123047 276.7730390230815,343.4242401123047 276.7730390230815,343.4242401123047"/><path d=" M278.7575810750326,363.4242401123047 C276.9714932282766,353.4242401123047 276.7730390230815,343.4242401123047 276.7730390230815,343.4242401123047" class="clickable"/></g><path d="M 276.7730390230815,343.4242401123047 L 283.7730390230815,340.9242401123047 L 283.7730390230815,345.9242401123047 Z" transform="rotate(88.86309039966123 276.7730390230815 343.4242401123047)" class="arrow" style="fill:rgb(48, 48, 48);stroke-linejoin:miter;stroke-miterlimit:2;"/></g></g></g></svg>